<!-- Generated by IcoMoon.io -->
<svg version="1.1" xmlns="http://www.w3.org/2000/svg" width="32" height="32" viewBox="0 0 32 32">
<title>B</title>
<path d="M6.628 32c-0.781 0-1.441-0.249-1.98-0.748-0.539-0.525-0.808-1.168-0.808-1.929v-26.647c0-0.813 0.269-1.456 0.808-1.929 0.539-0.499 1.199-0.748 1.98-0.748h9.655c1.67 0 3.124 0.223 4.363 0.669 1.266 0.42 2.303 1.010 3.111 1.771 0.835 0.735 1.454 1.627 1.858 2.677 0.431 1.023 0.646 2.125 0.646 3.306 0 1.364-0.35 2.572-1.050 3.621-0.673 1.050-1.549 1.889-2.626 2.519 1.858 0.761 3.245 1.745 4.161 2.952 0.943 1.181 1.414 2.703 1.414 4.566 0 1.443-0.269 2.768-0.808 3.975s-1.306 2.257-2.303 3.149c-0.97 0.866-2.128 1.548-3.474 2.047s-2.828 0.748-4.444 0.748h-10.504zM9.415 12.635h6.868c1.347 0 2.437-0.315 3.272-0.945 0.862-0.63 1.293-1.588 1.293-2.873s-0.431-2.23-1.293-2.834c-0.835-0.63-1.926-0.945-3.272-0.945h-6.868v7.597zM9.415 26.962h7.716c1.643 0 2.99-0.407 4.040-1.22 1.050-0.84 1.576-2.060 1.576-3.661 0-1.469-0.525-2.572-1.576-3.306s-2.397-1.102-4.040-1.102h-7.716v9.289z"></path>
</svg>
