<!-- Generated by IcoMoon.io -->
<svg version="1.1" xmlns="http://www.w3.org/2000/svg" width="119" height="32" viewBox="0 0 119 32">
<title>bolt-logo</title>
<path fill="#2e2e2e" d="M117.822 27.729c-0.032-0.157-0.077-0.311-0.135-0.459s-0.132-0.29-0.217-0.423c-0.086-0.135-0.186-0.26-0.296-0.375s-0.23-0.215-0.359-0.305c-0.129-0.090-0.266-0.165-0.41-0.225-0.143-0.062-0.291-0.109-0.443-0.14-0.305-0.065-0.62-0.065-0.926 0-0.152 0.031-0.3 0.078-0.443 0.14-0.144 0.060-0.281 0.135-0.41 0.225s-0.249 0.191-0.359 0.305c-0.111 0.114-0.21 0.24-0.296 0.375-0.085 0.134-0.158 0.275-0.217 0.423s-0.104 0.302-0.135 0.459c-0.062 0.317-0.062 0.645 0 0.962 0.032 0.157 0.077 0.311 0.135 0.459s0.132 0.289 0.217 0.423c0.086 0.135 0.186 0.261 0.296 0.375 0.11 0.113 0.23 0.215 0.359 0.305s0.267 0.166 0.41 0.227c0.143 0.060 0.292 0.107 0.443 0.138 0.306 0.064 0.62 0.064 0.926 0 0.152-0.031 0.3-0.078 0.443-0.138 0.144-0.062 0.281-0.138 0.41-0.227s0.249-0.191 0.359-0.305c0.111-0.114 0.21-0.24 0.296-0.375 0.085-0.134 0.158-0.275 0.217-0.423s0.104-0.302 0.135-0.459c0.062-0.317 0.062-0.645 0-0.962v0z"></path>
<path fill="#2e2e2e" d="M53.227 10.3c-1.488-0.965-3.21-1.468-4.965-1.45-1.181-0.011-2.353 0.203-3.459 0.632-1.053 0.414-2.020 1.033-2.85 1.821v-8.511c0.013-0.333-0.041-0.665-0.158-0.976s-0.295-0.592-0.523-0.827c-0.482-0.443-1.104-0.687-1.747-0.687s-1.266 0.245-1.748 0.687c-0.233 0.232-0.415 0.513-0.536 0.824s-0.176 0.644-0.163 0.979v16.948c-0.021 1.913 0.447 3.798 1.357 5.463s2.229 3.050 3.823 4.014c1.604 0.97 3.431 1.471 5.287 1.449 1.879 0.022 3.73-0.479 5.359-1.449 1.582-0.934 2.889-2.295 3.782-3.94 0.916-1.69 1.385-3.6 1.362-5.538 0.021-1.917-0.422-3.808-1.29-5.5-0.82-1.614-2.038-2.974-3.531-3.94zM52.563 23.011c-0.477 0.939-1.189 1.729-2.061 2.286-0.896 0.547-1.917 0.836-2.957 0.836s-2.061-0.289-2.957-0.836c-0.87-0.554-1.576-1.345-2.043-2.286-0.5-1.011-0.753-2.135-0.735-3.271-0.018-1.136 0.235-2.259 0.735-3.271 0.464-0.938 1.172-1.723 2.043-2.267 0.894-0.551 1.917-0.834 2.957-0.817 1.040-0.041 2.069 0.237 2.957 0.799 0.872 0.557 1.584 1.347 2.061 2.286 0.512 1.007 0.77 2.132 0.753 3.27 0.018 1.139-0.241 2.263-0.753 3.271v0z"></path>
<path fill="#2e2e2e" d="M77.412 10.244c-1.638-0.942-3.486-1.423-5.359-1.394-1.89-0.030-3.756 0.45-5.413 1.394-1.576 0.903-2.875 2.25-3.746 3.884-0.913 1.73-1.376 3.677-1.344 5.649-0.031 1.957 0.439 3.887 1.362 5.594 0.885 1.624 2.18 2.967 3.746 3.884 1.646 0.957 3.508 1.444 5.395 1.412 1.885 0.032 3.745-0.449 5.395-1.394 1.568-0.908 2.86-2.253 3.728-3.884 0.91-1.718 1.374-3.652 1.344-5.612 0.032-1.974-0.438-3.923-1.362-5.649-0.878-1.629-2.175-2.973-3.746-3.884v0zM77.071 23.122c-0.454 0.94-1.156 1.726-2.025 2.267-0.913 0.536-1.944 0.818-2.993 0.818s-2.080-0.282-2.993-0.818c-0.871-0.544-1.579-1.329-2.043-2.267-0.506-1.036-0.758-2.184-0.735-3.345-0.022-1.166 0.231-2.321 0.735-3.364 0.46-0.946 1.168-1.738 2.043-2.286 0.913-0.536 1.944-0.817 2.993-0.817s2.080 0.282 2.993 0.817c0.872 0.545 1.575 1.339 2.025 2.286 0.493 1.047 0.738 2.199 0.717 3.364 0.023 1.158-0.223 2.306-0.717 3.345v0z"></path>
<path fill="#2e2e2e" d="M92.905 25.761h-0.502c-0.247 0.025-0.495-0.024-0.715-0.143s-0.401-0.302-0.522-0.526c-0.256-0.595-0.373-1.245-0.34-1.895v-20.293c0.011-0.329-0.046-0.656-0.167-0.961s-0.302-0.579-0.532-0.805c-0.226-0.225-0.493-0.402-0.785-0.52s-0.604-0.175-0.917-0.168c-0.32-0.014-0.639 0.040-0.938 0.158s-0.572 0.298-0.801 0.53c-0.221 0.232-0.393 0.508-0.507 0.812s-0.167 0.628-0.156 0.954v20.293c0 2.478 0.508 4.342 1.523 5.594 0.529 0.631 1.19 1.127 1.932 1.453s1.547 0.47 2.351 0.424h0.251c0.783 0.033 1.553-0.21 2.186-0.688 0.27-0.2 0.49-0.466 0.64-0.773s0.226-0.648 0.221-0.992c0.018-0.645-0.207-1.271-0.627-1.747-0.201-0.23-0.448-0.412-0.723-0.534s-0.573-0.181-0.872-0.172v0z"></path>
<path fill="#2e2e2e" d="M107.474 25.761h-1.219c-0.287 0.004-0.572-0.059-0.832-0.185s-0.491-0.31-0.673-0.54c-0.45-0.625-0.666-1.397-0.609-2.174v-8.585h2.437c0.605 0.024 1.196-0.196 1.649-0.613 0.209-0.193 0.375-0.431 0.486-0.698s0.166-0.555 0.159-0.845c0.015-0.305-0.035-0.61-0.147-0.892s-0.282-0.536-0.499-0.743c-0.458-0.407-1.047-0.619-1.649-0.595h-2.437v-4.757c0.010-0.329-0.046-0.656-0.167-0.96s-0.302-0.579-0.532-0.805c-0.468-0.442-1.078-0.688-1.712-0.688s-1.244 0.245-1.712 0.688c-0.226 0.229-0.403 0.504-0.52 0.808s-0.172 0.63-0.161 0.957v4.757h-1.040c-0.609-0.031-1.205 0.182-1.667 0.595-0.212 0.21-0.378 0.464-0.486 0.746s-0.156 0.585-0.141 0.889c-0.007 0.289 0.045 0.575 0.153 0.841s0.27 0.505 0.474 0.701c0.456 0.424 1.055 0.644 1.667 0.613h1.040v8.957c-0.050 1.438 0.259 2.866 0.896 4.144 0.558 1.063 1.414 1.925 2.455 2.472 1.11 0.561 2.332 0.841 3.567 0.817h0.645c0.717 0.034 1.42-0.211 1.972-0.688 0.244-0.218 0.438-0.489 0.569-0.795s0.193-0.637 0.184-0.971c0.010-0.641-0.221-1.261-0.645-1.728-0.186-0.226-0.417-0.408-0.676-0.533s-0.543-0.19-0.829-0.192v0z"></path>
<path fill="#2e2e2e" d="M28.224 20.405c-0.628 0-1.231 0.259-1.676 0.72s-0.694 1.086-0.694 1.737l-0.002 3.193h-3.078c-0.628 0-1.231 0.259-1.676 0.72s-0.694 1.086-0.694 1.737 0.25 1.277 0.694 1.737c0.444 0.461 1.047 0.72 1.676 0.72h3.078c1.257-0.002 2.462-0.52 3.351-1.442s1.389-2.171 1.39-3.474v-3.191c0-0.652-0.25-1.277-0.694-1.737s-1.047-0.72-1.675-0.72v0z"></path>
<path fill="#2e2e2e" d="M25.852 0h-3.078c-0.628 0-1.231 0.259-1.676 0.72s-0.694 1.086-0.694 1.737 0.25 1.277 0.694 1.737c0.444 0.461 1.047 0.72 1.676 0.72l3.079 0.002v3.191c0 0.652 0.25 1.277 0.694 1.737s1.047 0.72 1.676 0.72c0.628 0 1.231-0.259 1.675-0.72s0.694-1.086 0.694-1.737v-3.191c-0.001-1.303-0.501-2.553-1.39-3.474s-2.094-1.44-3.351-1.442v0z"></path>
<path fill="#2e2e2e" d="M3.094 10.564c0.628 0 1.231-0.259 1.676-0.72s0.694-1.086 0.694-1.737l0.002-3.193h3.078c0.628 0 1.231-0.259 1.676-0.72s0.694-1.086 0.694-1.737c0-0.652-0.25-1.277-0.694-1.737s-1.047-0.72-1.676-0.72h-3.078c-1.257 0.002-2.462 0.52-3.351 1.442s-1.389 2.171-1.39 3.474v3.191c0 0.652 0.25 1.277 0.694 1.737s1.047 0.72 1.676 0.72z"></path>
<path fill="#2e2e2e" d="M8.543 26.055l-3.080-0.002v-3.191c0-0.652-0.25-1.277-0.694-1.737s-1.047-0.72-1.676-0.72-1.231 0.259-1.676 0.72c-0.444 0.461-0.694 1.086-0.694 1.737v3.191c0.001 1.303 0.501 2.553 1.39 3.474s2.094 1.44 3.351 1.442h3.078c0.628 0 1.231-0.259 1.676-0.72s0.694-1.086 0.694-1.737-0.25-1.277-0.694-1.737c-0.444-0.461-1.047-0.72-1.676-0.72v0z"></path>
<path fill="#ef771c" d="M23.965 14.466c-0.179-0.449-0.483-0.833-0.873-1.103s-0.848-0.414-1.316-0.414h-6.514l2.853-2.958c0.22-0.228 0.395-0.499 0.514-0.797s0.18-0.618 0.18-0.94-0.061-0.642-0.18-0.94c-0.119-0.298-0.294-0.569-0.514-0.797s-0.481-0.409-0.769-0.533c-0.287-0.123-0.596-0.187-0.907-0.187s-0.619 0.064-0.907 0.187c-0.288 0.123-0.549 0.304-0.769 0.533l-6.897 7.152c-0.331 0.344-0.557 0.781-0.648 1.258s-0.045 0.971 0.135 1.419c0.179 0.449 0.483 0.833 0.873 1.103s0.848 0.414 1.316 0.414h6.514l-2.852 2.957c-0.444 0.461-0.694 1.086-0.694 1.737s0.25 1.276 0.694 1.737c0.444 0.461 1.047 0.72 1.675 0.72s1.231-0.259 1.676-0.72l6.898-7.152c0.331-0.344 0.557-0.781 0.649-1.258s0.044-0.971-0.135-1.419v0z"></path>
</svg>
