<!-- Generated by IcoMoon.io -->
<svg version="1.1" xmlns="http://www.w3.org/2000/svg" width="32" height="32" viewBox="0 0 32 32">
<title>color</title>
<path fill="#fafafa" d="M31.893 14.986c-0.404-3.235-1.761-6.276-3.897-8.738s-4.957-4.233-8.103-5.088c-2.511-0.773-5.196-0.773-7.707 0-2.82 0.77-5.387 2.27-7.442 4.349s-3.526 4.663-4.264 7.491c-0.682 2.677-0.652 5.486 0.088 8.147s2.161 5.084 4.126 7.026c0.531 0.53 1.225 0.866 1.97 0.954s1.498-0.080 2.137-0.474c0.254-0.16 0.469-0.375 0.628-0.63s0.259-0.542 0.293-0.84c0.033-0.298-0.001-0.601-0.1-0.884s-0.261-0.541-0.474-0.753l-1.080-1.080c-0.125-0.124-0.224-0.271-0.292-0.434s-0.103-0.337-0.103-0.513 0.035-0.35 0.103-0.513c0.068-0.163 0.167-0.31 0.292-0.434 0.119-0.163 0.27-0.299 0.444-0.401s0.367-0.166 0.567-0.19c0.2-0.024 0.403-0.006 0.596 0.052s0.372 0.155 0.526 0.286c1.88 1.88 7.493 7.547 7.493 7.547 0.996 1.002 2.348 1.567 3.76 1.573 0.898 0.002 1.778-0.243 2.547-0.707 2.712-1.565 4.905-3.89 6.309-6.689s1.954-5.948 1.585-9.057zM19.306 25.146c-0.31-0.309-0.556-0.675-0.724-1.079s-0.254-0.837-0.254-1.274 0.086-0.87 0.254-1.274c0.168-0.404 0.414-0.771 0.724-1.079 0.631-0.61 1.475-0.951 2.353-0.951s1.722 0.341 2.353 0.951c0.568 0.635 0.871 1.463 0.847 2.315s-0.373 1.661-0.975 2.264c-0.602 0.602-1.412 0.951-2.264 0.975s-1.68-0.279-2.315-0.847zM19 9.6c0-0.707 0.281-1.386 0.781-1.886s1.178-0.781 1.886-0.781c0.527 0 1.043 0.156 1.482 0.449s0.78 0.709 0.982 1.197c0.202 0.487 0.255 1.023 0.152 1.541s-0.357 0.992-0.73 1.365c-0.373 0.373-0.848 0.627-1.365 0.73s-1.053 0.050-1.541-0.152c-0.487-0.202-0.904-0.544-1.197-0.982s-0.449-0.954-0.449-1.482zM23.92 17.6c-0.353-0.379-0.546-0.881-0.536-1.399s0.219-1.012 0.585-1.379c0.366-0.366 0.861-0.576 1.379-0.585s1.020 0.183 1.399 0.536c0.197 0.183 0.354 0.404 0.463 0.649s0.168 0.51 0.173 0.779c0.005 0.269-0.045 0.535-0.145 0.784s-0.25 0.475-0.44 0.665c-0.19 0.19-0.416 0.34-0.665 0.44s-0.516 0.15-0.784 0.145c-0.269-0.005-0.533-0.064-0.779-0.173s-0.466-0.267-0.649-0.463zM15.533 6.293c0.373 0.373 0.626 0.848 0.729 1.365s0.050 1.053-0.152 1.54c-0.202 0.487-0.544 0.903-0.982 1.196s-0.954 0.449-1.481 0.449-1.043-0.156-1.481-0.449c-0.438-0.293-0.78-0.709-0.982-1.196s-0.255-1.023-0.152-1.54 0.356-0.992 0.729-1.365c0.248-0.248 0.542-0.445 0.866-0.579s0.671-0.203 1.021-0.203c0.35 0 0.697 0.069 1.021 0.203s0.618 0.331 0.866 0.579z"></path>
</svg>
