<!-- Generated by IcoMoon.io -->
<svg version="1.1" xmlns="http://www.w3.org/2000/svg" width="32" height="32" viewBox="0 0 32 32">
<title>crypto</title>
<path d="M19.429 12.091c0-0.934-0.757-1.691-1.691-1.691h-4.023c-0.316 0-0.571 0.256-0.571 0.571v0 2.286c0.055 0.263 0.285 0.457 0.56 0.457 0.004 0 0.008-0 0.012-0h4.022c0.906-0.011 1.642-0.723 1.691-1.618l0-0.004z"></path>
<path d="M17.691 16.663h-3.977c-0.316 0-0.571 0.256-0.571 0.571v0 3.337c-0.001 0.014-0.002 0.030-0.002 0.046 0 0.316 0.256 0.571 0.571 0.571 0.001 0 0.001 0 0.002 0h3.977c1.262 0 2.286-1.023 2.286-2.286s-1.023-2.286-2.286-2.286v0z"></path>
<path d="M16 0c-8.837 0-16 7.163-16 16s7.163 16 16 16c8.837 0 16-7.163 16-16v0c0-8.837-7.163-16-16-16v0zM20.297 23.314c-0.165 0.097-0.274 0.273-0.274 0.475 0 0.002 0 0.003 0 0.005v-0 2.491c-0.093 0.714-0.697 1.259-1.429 1.259s-1.336-0.545-1.428-1.252l-0.001-0.007v-1.669c0-0.316-0.256-0.571-0.571-0.571v0h-1.234c-0.316 0-0.571 0.256-0.571 0.571v0 1.669c-0.093 0.714-0.697 1.259-1.429 1.259s-1.336-0.545-1.428-1.252l-0.001-0.007v-2.080c0-0.002 0-0.004 0-0.007 0-0.207-0.12-0.386-0.294-0.472l-0.003-0.001c-0.784-0.453-1.303-1.288-1.303-2.244 0-0.015 0-0.030 0-0.044l-0 0.002v-11.429c-0-0.013-0-0.027-0-0.042 0-0.956 0.519-1.79 1.291-2.237l0.012-0.007c0.177-0.087 0.297-0.266 0.297-0.473 0-0.002 0-0.005-0-0.007v0-1.531c0.093-0.714 0.697-1.259 1.429-1.259s1.336 0.545 1.428 1.252l0.001 0.007v1.257c0 0.316 0.256 0.571 0.571 0.571v0h1.234c0.316 0 0.571-0.256 0.571-0.571v0-1.257c0.093-0.714 0.697-1.259 1.429-1.259s1.336 0.545 1.428 1.252l0.001 0.007v2.149c0.002 0.198 0.1 0.372 0.25 0.479l0.002 0.001c1.208 0.835 1.99 2.212 1.99 3.773 0 0.994-0.317 1.914-0.856 2.664l0.009-0.014c-0.081 0.095-0.13 0.219-0.13 0.354s0.049 0.259 0.13 0.355l-0.001-0.001c0.863 0.897 1.406 2.108 1.44 3.445l0 0.007c-0.007 1.87-1.025 3.501-2.536 4.376l-0.024 0.013z"></path>
</svg>
