<!-- Generated by IcoMoon.io -->
<svg version="1.1" xmlns="http://www.w3.org/2000/svg" width="32" height="32" viewBox="0 0 32 32">
<title>date-time</title>
<path fill="#ffa039" d="M8.571 8c0.453-0.006 0.885-0.188 1.206-0.509s0.503-0.753 0.509-1.206v-4.571c0-0.455-0.181-0.891-0.502-1.212s-0.758-0.502-1.212-0.502-0.891 0.181-1.212 0.502c-0.322 0.322-0.502 0.758-0.502 1.212v4.571c0.006 0.453 0.188 0.885 0.509 1.206s0.753 0.503 1.206 0.509z"></path>
<path fill="#ffa039" d="M23.429 8c0.453-0.006 0.885-0.188 1.206-0.509s0.503-0.753 0.509-1.206v-4.571c0-0.455-0.181-0.891-0.502-1.212s-0.758-0.502-1.212-0.502-0.891 0.181-1.212 0.502c-0.322 0.322-0.502 0.758-0.502 1.212v4.571c0.006 0.453 0.188 0.885 0.509 1.206s0.753 0.503 1.206 0.509z"></path>
<path fill="#ffa039" d="M28.663 3.474c-0.082-0.011-0.165-0.005-0.244 0.019s-0.152 0.064-0.214 0.119c-0.064 0.053-0.115 0.119-0.151 0.194s-0.054 0.157-0.055 0.24v2.286c0 1.212-0.482 2.375-1.339 3.233s-2.020 1.339-3.233 1.339-2.375-0.482-3.232-1.339c-0.857-0.857-1.339-2.020-1.339-3.233v-2.286c0.006-0.079-0.004-0.158-0.030-0.233s-0.067-0.143-0.121-0.201c-0.054-0.058-0.119-0.104-0.191-0.136s-0.151-0.048-0.23-0.047h-4.571c-0.152 0-0.297 0.060-0.404 0.167s-0.167 0.252-0.167 0.404v2.286c0 1.212-0.482 2.375-1.339 3.233s-2.020 1.339-3.233 1.339-2.375-0.482-3.232-1.339c-0.857-0.857-1.339-2.020-1.339-3.233v-2.286c-0.001-0.083-0.019-0.165-0.055-0.24s-0.087-0.141-0.151-0.194c-0.062-0.054-0.135-0.095-0.214-0.119s-0.162-0.030-0.244-0.019c-0.942 0.158-1.797 0.649-2.409 1.382s-0.941 1.662-0.928 2.618v20.571c0.006 1.059 0.429 2.073 1.178 2.822s1.763 1.172 2.822 1.178h24c1.059-0.006 2.073-0.429 2.822-1.178s1.172-1.763 1.178-2.822v-20.571c0.002-0.948-0.332-1.865-0.943-2.589s-1.46-1.208-2.394-1.365zM21.143 22.285h-2.857c-0.151 0-0.297 0.060-0.404 0.167s-0.167 0.253-0.167 0.404v2.857c0 0.455-0.181 0.891-0.502 1.212s-0.758 0.502-1.212 0.502-0.891-0.181-1.212-0.502c-0.321-0.321-0.502-0.758-0.502-1.212v-2.857c0-0.151-0.060-0.297-0.167-0.404s-0.253-0.167-0.404-0.167h-2.857c-0.455 0-0.891-0.181-1.212-0.502s-0.502-0.758-0.502-1.212 0.181-0.891 0.502-1.212c0.321-0.321 0.758-0.502 1.212-0.502h2.857c0.152 0 0.297-0.060 0.404-0.167s0.167-0.253 0.167-0.404v-2.857c0-0.455 0.181-0.891 0.502-1.212s0.758-0.502 1.212-0.502c0.455 0 0.891 0.181 1.212 0.502s0.502 0.758 0.502 1.212v2.857c0 0.152 0.060 0.297 0.167 0.404s0.253 0.167 0.404 0.167h2.857c0.455 0 0.891 0.181 1.212 0.502s0.502 0.758 0.502 1.212-0.181 0.891-0.502 1.212c-0.321 0.322-0.758 0.502-1.212 0.502z"></path>
</svg>
