<!-- Generated by IcoMoon.io -->
<svg version="1.1" xmlns="http://www.w3.org/2000/svg" width="32" height="32" viewBox="0 0 32 32">
<title>dynamic-icon</title>
<path d="M13.143 21.135c-0.308 0.029-0.619-0.004-0.913-0.098s-0.567-0.247-0.801-0.449c-0.232-0.214-0.417-0.473-0.544-0.762s-0.192-0.601-0.192-0.916c0-0.315 0.065-0.627 0.192-0.916s0.312-0.548 0.544-0.762l5.804-5.775c0.436-0.442 1.030-0.693 1.652-0.697s1.219 0.238 1.661 0.674c0.442 0.436 0.693 1.029 0.698 1.65s-0.238 1.218-0.675 1.66l-5.804 5.843c-0.449 0.386-1.031 0.582-1.622 0.548v0z"></path>
<path d="M25.14 20.587c-0.301 0.002-0.599-0.056-0.877-0.169s-0.532-0.281-0.745-0.492c-0.214-0.212-0.384-0.465-0.5-0.743s-0.176-0.576-0.176-0.878 0.060-0.6 0.176-0.878c0.116-0.278 0.286-0.531 0.5-0.743l3.245-3.241c0.214-0.212 0.384-0.465 0.5-0.743s0.176-0.576 0.176-0.878-0.060-0.6-0.176-0.878c-0.116-0.278-0.286-0.531-0.5-0.743l-4.958-4.976c-0.212-0.214-0.465-0.384-0.744-0.5s-0.577-0.176-0.879-0.176c-0.302 0-0.6 0.060-0.879 0.176s-0.531 0.286-0.744 0.5l-3.222 3.241c-0.213 0.213-0.466 0.382-0.744 0.497s-0.577 0.174-0.878 0.174-0.6-0.059-0.878-0.174c-0.278-0.115-0.531-0.284-0.744-0.497-0.43-0.43-0.672-1.013-0.672-1.621 0-0.301 0.059-0.599 0.175-0.877s0.284-0.531 0.497-0.744l3.245-3.241c1.313-1.273 3.071-1.985 4.901-1.985s3.588 0.712 4.901 1.985l4.844 4.907c0.639 0.636 1.146 1.392 1.492 2.224s0.524 1.725 0.524 2.626c0 0.901-0.178 1.794-0.524 2.626s-0.853 1.588-1.492 2.224l-3.222 3.31c-0.212 0.216-0.464 0.387-0.742 0.505s-0.578 0.179-0.88 0.18v0z"></path>
<path d="M11.819 32c-1.817-0.002-3.56-0.724-4.844-2.009l-4.958-4.976c-0.639-0.636-1.146-1.392-1.492-2.224s-0.524-1.725-0.524-2.626 0.178-1.794 0.524-2.626c0.346-0.832 0.853-1.588 1.492-2.224l3.222-3.218c0.427-0.43 1.008-0.672 1.614-0.675s1.189 0.236 1.619 0.663c0.43 0.427 0.673 1.007 0.675 1.613s-0.237 1.188-0.664 1.617l-3.245 3.241c-0.214 0.212-0.384 0.465-0.5 0.743s-0.176 0.576-0.176 0.878c0 0.301 0.060 0.6 0.176 0.878s0.286 0.53 0.5 0.743l4.958 4.953c0.212 0.214 0.465 0.384 0.744 0.5s0.577 0.176 0.879 0.176 0.6-0.060 0.879-0.176c0.278-0.116 0.531-0.286 0.744-0.5l3.222-3.218c0.427-0.43 1.008-0.672 1.614-0.675s1.189 0.236 1.619 0.663 0.673 1.007 0.675 1.613c0.002 0.606-0.237 1.187-0.664 1.617l-3.244 3.241c-1.284 1.285-3.027 2.007-4.844 2.009v0z"></path>
</svg>
