<!-- Generated by IcoMoon.io -->
<svg version="1.1" xmlns="http://www.w3.org/2000/svg" width="32" height="32" viewBox="0 0 32 32">
<title>email</title>
<path d="M28.571 2.857h-25.143c-1.894 0-3.429 1.535-3.429 3.429v0 19.429c0 1.894 1.535 3.429 3.429 3.429v0h25.143c1.894 0 3.429-1.535 3.429-3.429v0-19.429c0-1.894-1.535-3.429-3.429-3.429v0zM28.32 12.32l-9.143 5.486c-0.913 0.559-2.018 0.891-3.2 0.891s-2.287-0.331-3.227-0.906l0.027 0.015-9.143-5.486c-0.465-0.311-0.768-0.835-0.768-1.429 0-0.947 0.768-1.714 1.714-1.714 0.307 0 0.595 0.081 0.845 0.222l-0.008-0.004 9.143 5.463c0.405 0.243 0.894 0.387 1.417 0.387s1.012-0.144 1.43-0.394l-0.013 0.007 9.143-5.463c0.241-0.137 0.529-0.218 0.836-0.218 0.947 0 1.714 0.768 1.714 1.714 0 0.594-0.302 1.118-0.761 1.425l-0.006 0.004z"></path>
</svg>
