<!-- Generated by IcoMoon.io -->
<svg version="1.1" xmlns="http://www.w3.org/2000/svg" width="32" height="32" viewBox="0 0 32 32">
<title>event</title>
<path d="M31.749 27.269l-4.823-12.137c-0.35-0.892-1.121-1.55-2.062-1.734l-0.018-0.003c-0.18-0.041-0.387-0.065-0.6-0.065-0.785 0-1.496 0.322-2.006 0.841l-0 0-8.091 8.069c-0.481 0.507-0.776 1.193-0.776 1.949 0 1.178 0.718 2.188 1.741 2.616l0.019 0.007 12.137 4.823c0.432 0.211 0.94 0.335 1.478 0.335 1.894 0 3.429-1.535 3.429-3.429 0-0.537-0.123-1.045-0.344-1.498l0.009 0.020z"></path>
<path d="M4.206 20.183c-0.378-0.321-0.617-0.796-0.617-1.328 0-0.417 0.147-0.799 0.391-1.098l-0.002 0.003c1.041-1.207 2.549-1.986 4.24-2.057l0.012-0c0.12-0.011 0.259-0.017 0.399-0.017 1.225 0 2.344 0.457 3.194 1.21l-0.005-0.004c0.31 0.31 0.501 0.738 0.501 1.211s-0.192 0.901-0.501 1.211l0-0c-0.316 0.306-0.748 0.494-1.223 0.494s-0.907-0.188-1.223-0.495l0.001 0c-0.274-0.114-0.593-0.181-0.928-0.181-0.729 0-1.384 0.316-1.836 0.819l-0.002 0.002c-0.317 0.377-0.788 0.615-1.316 0.615-0.413 0-0.792-0.146-1.087-0.389l0.003 0.002z"></path>
<path d="M17.371 12.617c-1.299-1.452-2.094-3.379-2.094-5.493 0-1.223 0.266-2.384 0.743-3.428l-0.021 0.052c0.846-2.008 2.67-3.453 4.86-3.745l0.031-0.003c0.942 0.013 1.702 0.773 1.714 1.713v0.001c-0.013 0.942-0.773 1.702-1.713 1.714h-0.001c-0.883 0.339-1.571 1.019-1.912 1.875l-0.008 0.022c-0.217 0.523-0.342 1.13-0.342 1.767 0 1.322 0.542 2.517 1.416 3.375l0.001 0.001c0.203 0.278 0.325 0.627 0.325 1.004 0 0.509-0.222 0.966-0.574 1.28l-0.002 0.002c-0.303 0.265-0.703 0.427-1.141 0.427-0.507 0-0.963-0.217-1.281-0.563l-0.001-0.001z"></path>
<path d="M5.714 10.286c0 1.578-1.279 2.857-2.857 2.857s-2.857-1.279-2.857-2.857c0-1.578 1.279-2.857 2.857-2.857s2.857 1.279 2.857 2.857z"></path>
<path d="M10.423 10.4c-1.745-1.587-2.836-3.866-2.836-6.4 0-0.064 0.001-0.128 0.002-0.192l-0 0.010c0-0.947 0.768-1.714 1.714-1.714s1.714 0.768 1.714 1.714v0c-0.003 0.062-0.004 0.134-0.004 0.207 0 1.443 0.597 2.746 1.557 3.677l0.001 0.001c0.395 0.321 0.645 0.807 0.645 1.351 0 0.406-0.139 0.78-0.373 1.076l0.003-0.004c-0.325 0.39-0.811 0.636-1.354 0.636-0.404 0-0.776-0.136-1.073-0.365l0.004 0.003z"></path>
</svg>
