<!-- Generated by IcoMoon.io -->
<svg version="1.1" xmlns="http://www.w3.org/2000/svg" width="32" height="32" viewBox="0 0 32 32">
<title>facetime</title>
<path d="M31.764 17.684c-0.003-3.416 0.029-6.833-0.021-10.247 0-0.027 0.001-0.059 0.001-0.091 0-1.569-0.492-3.023-1.33-4.216l0.016 0.023c-1.543-2.145-3.752-2.904-6.262-2.918-5.511-0.030-11.021-0.021-16.532 0-0.055-0.001-0.12-0.002-0.185-0.002-1.188 0-2.319 0.246-3.344 0.689l0.055-0.021c-2.778 1.257-4.018 3.578-4.106 6.47-0.112 3.699-0.016 7.404-0.009 11.107-0.001 2.050-0.041 4.101 0.008 6.15 0.060 2.448 0.875 4.56 2.962 6.031 1.409 0.993 3.027 1.288 4.694 1.301q5.622 0.048 11.245 0.009c2.18-0.015 4.363 0.12 6.541-0.12 3.269-0.264 5.861-2.84 6.148-6.078l0.002-0.026c0.303-2.68 0.098-5.373 0.119-8.061zM20.294 20.464c-0.433 1.742-1.47 2.612-3.282 2.632q-4.419 0.046-8.838 0c-0.016 0-0.035 0-0.054 0-1.415 0-2.626-0.872-3.124-2.108l-0.008-0.023c-0.057-0.198-0.090-0.426-0.090-0.661 0-0.037 0.001-0.074 0.002-0.111l-0 0.005c0.003-2.512 0.030-5.024 0.003-7.535-0.026-2.324 1.278-3.42 3.454-3.443 2.82-0.030 5.642-0.009 8.462-0.007 0.052-0.003 0.114-0.004 0.176-0.004 1.086 0 2.062 0.47 2.735 1.218l0.003 0.003c0.353 0.448 0.566 1.020 0.566 1.642 0 0.045-0.001 0.090-0.003 0.135l0-0.006q0.004 4.131-0.001 8.262zM27.002 11.901q-0.002 4.433-0.001 8.865c0.001 0.609-0.103 1.146-0.719 1.435-0.61 0.286-1.087 0.061-1.556-0.349-1.012-0.884-2.051-1.738-3.078-2.606-0.266-0.195-0.473-0.454-0.602-0.756l-0.005-0.012c-0.004-1.339 0.061-2.683-0.038-4.015-0.069-0.934 0.521-1.465 1.073-1.896 0.86-0.674 1.621-1.452 2.472-2.128 0.259-0.275 0.599-0.469 0.982-0.546l0.012-0.002c0.696-0.075 1.044 0.286 1.364 0.778 0.067 0.281 0.106 0.604 0.106 0.936 0 0.104-0.004 0.208-0.011 0.31l0.001-0.014z"></path>
</svg>
