<!-- Generated by IcoMoon.io -->
<svg version="1.1" xmlns="http://www.w3.org/2000/svg" width="32" height="32" viewBox="0 0 32 32">
<title>facebook-large</title>
<path fill="#ff8a0a" d="M23.775 0.119h-16.364c-1.954 0-3.828 0.777-5.21 2.159s-2.158 3.256-2.159 5.21v16.364c0.004 1.953 0.781 3.825 2.162 5.206s3.253 2.158 5.206 2.162h16.364c1.954-0 3.828-0.777 5.21-2.159s2.158-3.256 2.159-5.21v-16.364c0.001-0.968-0.188-1.927-0.558-2.821s-0.912-1.707-1.597-2.392c-0.685-0.684-1.497-1.227-2.392-1.597s-1.853-0.559-2.821-0.558v0zM19.679 12.954c0.075-0.004 0.15 0.009 0.219 0.037s0.132 0.072 0.183 0.127c0.053 0.051 0.095 0.114 0.12 0.184s0.034 0.144 0.026 0.218l-0.11 2.358c-0.004 0.142-0.064 0.278-0.166 0.377s-0.24 0.154-0.382 0.154h-2.688v8.063c0.001 0.072-0.012 0.144-0.039 0.211s-0.067 0.128-0.119 0.179-0.112 0.092-0.179 0.119c-0.067 0.027-0.139 0.040-0.211 0.039h-2.541c-0.072 0.001-0.144-0.012-0.211-0.039s-0.128-0.067-0.179-0.119-0.092-0.112-0.119-0.179c-0.027-0.067-0.040-0.139-0.039-0.211v-8.063h-1.737c-0.072 0.001-0.144-0.012-0.211-0.039s-0.128-0.067-0.179-0.119-0.092-0.112-0.119-0.179c-0.027-0.067-0.040-0.139-0.039-0.211v-2.358c-0.001-0.072 0.012-0.144 0.039-0.211s0.067-0.128 0.119-0.179c0.051-0.051 0.112-0.092 0.179-0.119s0.139-0.040 0.211-0.039h1.737v-2.487c0-1.92 1.207-4.169 4.626-4.169 0.804 0 1.481 0.055 1.865 0.091 0.135 0.015 0.26 0.079 0.351 0.18s0.142 0.232 0.142 0.368l-0.055 2.212c-0.004 0.142-0.064 0.278-0.166 0.377s-0.24 0.154-0.382 0.153h-1.627c-0.951 0-1.115 0.366-1.115 1.188v2.084h2.797z"></path>
</svg>
