<!-- Generated by IcoMoon.io -->
<svg version="1.1" xmlns="http://www.w3.org/2000/svg" width="30" height="32" viewBox="0 0 30 32">
<title>features-icon</title>
<path d="M0 14.955v9.282c0 1.895 0.736 3.713 2.045 5.053s3.085 2.093 4.937 2.093c1.852 0 3.627-0.753 4.937-2.093s2.045-3.158 2.045-5.053l0.006-9.287h9.068c1.852 0 3.627-0.753 4.937-2.093s2.045-3.158 2.045-5.053c0-1.895-0.736-3.713-2.045-5.053s-3.085-2.093-4.937-2.093h-9.068c-3.703 0.004-7.254 1.512-9.872 4.192s-4.092 6.315-4.096 10.105v0z"></path>
</svg>
