<!-- Generated by IcoMoon.io -->
<svg version="1.1" xmlns="http://www.w3.org/2000/svg" width="32" height="32" viewBox="0 0 32 32">
<title>instagram-large</title>
<path fill="#ff8a0a" d="M15.518 10.742c-1.319 0.026-2.579 0.555-3.521 1.48s-1.494 2.174-1.544 3.493c0.014 0.872 0.246 1.727 0.676 2.486 0.143 0.263 0.308 0.514 0.494 0.75 0.091 0.128 0.219 0.238 0.329 0.366s0.238 0.219 0.347 0.329c0.087 0.073 0.179 0.14 0.274 0.201 0.047 0.052 0.102 0.096 0.165 0.128 0.091 0.055 0.201 0.128 0.311 0.183 0.743 0.46 1.595 0.713 2.468 0.731 1.359-0.015 2.657-0.567 3.61-1.537s1.482-2.277 1.473-3.637c-0.051-1.322-0.606-2.574-1.551-3.498s-2.209-1.453-3.532-1.475zM15.518 19.060c-0.862-0.027-1.68-0.387-2.284-1.004s-0.944-1.443-0.953-2.306c0.013-0.64 0.214-1.261 0.578-1.787s0.876-0.932 1.471-1.167 1.246-0.29 1.871-0.157c0.626 0.133 1.198 0.448 1.645 0.905s0.749 1.037 0.868 1.665c0.119 0.628 0.050 1.278-0.199 1.867s-0.666 1.092-1.2 1.445c-0.534 0.353-1.16 0.54-1.799 0.538v0z"></path>
<path fill="#ff8a0a" d="M21.553 9.498c0.159 0.109 0.292 0.253 0.387 0.421s0.15 0.356 0.162 0.548c0.005 0.162-0.023 0.322-0.081 0.473s-0.147 0.288-0.259 0.404c-0.113 0.116-0.247 0.208-0.396 0.271s-0.309 0.095-0.47 0.095c-0.162 0-0.321-0.032-0.47-0.095s-0.283-0.155-0.396-0.271-0.201-0.253-0.259-0.404c-0.058-0.151-0.086-0.311-0.081-0.473-0-0.157 0.034-0.312 0.1-0.454s0.163-0.268 0.284-0.369c0.046-0.058 0.102-0.108 0.164-0.146 0.193-0.134 0.423-0.205 0.658-0.201 0.098 0.003 0.196 0.015 0.293 0.037 0.101 0.035 0.198 0.078 0.292 0.128 0.018 0 0.037 0.018 0.073 0.037z"></path>
<path fill="#ff8a0a" d="M23.746 0.119h-16.364c-0.968-0.001-1.927 0.188-2.821 0.558s-1.707 0.912-2.392 1.597c-0.684 0.684-1.227 1.497-1.597 2.392s-0.559 1.853-0.558 2.821v16.364c0 1.954 0.777 3.828 2.159 5.21s3.256 2.158 5.21 2.159h16.364c1.953-0.004 3.825-0.781 5.206-2.162s2.158-3.253 2.162-5.206v-16.364c-0-1.954-0.777-3.828-2.159-5.21s-3.256-2.158-5.21-2.159v0zM25.282 15.824c0 1.353 0 2.688-0.073 4.022 0.035 0.752-0.087 1.503-0.358 2.206s-0.686 1.341-1.217 1.874c-0.532 0.533-1.168 0.95-1.87 1.223s-1.452 0.398-2.205 0.365c-1.353 0.073-2.688 0.055-4.022 0.055-1.353 0-2.688 0.018-4.041-0.055-0.746 0.008-1.486-0.133-2.176-0.415s-1.317-0.7-1.844-1.228c-0.526-0.528-0.942-1.156-1.222-1.848s-0.419-1.431-0.408-2.177c-0.073-1.335-0.018-2.103-0.018-3.456 0-1.335-0.055-3.236 0.018-4.589 0.007-1.506 0.567-2.956 1.572-4.077 1.243-1.39 2.523-1.499 4.077-1.572 1.353-0.073 2.688-0.073 4.041-0.073 1.335 0 2.669 0 4.022 0.073 1.513-0.033 2.978 0.532 4.077 1.572 1.025 1.122 1.581 2.594 1.554 4.114 0.11 2.066 0.091 1.883 0.091 3.986z"></path>
</svg>
