<!-- Generated by IcoMoon.io -->
<svg version="1.1" xmlns="http://www.w3.org/2000/svg" width="32" height="32" viewBox="0 0 32 32">
<title>location</title>
<path d="M16 0c-6.312 0-11.429 5.117-11.429 11.429v0c0 5.897 9.44 18.674 10.514 20.114 0.211 0.279 0.542 0.457 0.914 0.457s0.704-0.178 0.912-0.454l0.002-0.003c1.074-1.44 10.514-14.217 10.514-20.114 0-6.312-5.117-11.429-11.429-11.429v0zM16 14.857c-1.894 0-3.429-1.535-3.429-3.429s1.535-3.429 3.429-3.429c1.894 0 3.429 1.535 3.429 3.429v0c0 1.894-1.535 3.429-3.429 3.429v0z"></path>
</svg>
