<!-- Generated by IcoMoon.io -->
<svg version="1.1" xmlns="http://www.w3.org/2000/svg" width="120" height="32" viewBox="0 0 120 32">
<title>oakly-logo-full-color-9</title>
<path fill="#57bba7" d="M45.205 8.355c-1.437-0.746-3.041-1.137-4.669-1.137s-3.232 0.39-4.669 1.137c-1.343 0.744-2.453 1.83-3.211 3.142-0.796 1.41-1.198 2.998-1.167 4.606-0.029 1.598 0.373 3.176 1.167 4.576 0.757 1.312 1.867 2.398 3.211 3.142 1.443 0.746 3.051 1.137 4.685 1.137s3.242-0.39 4.685-1.137c1.342-0.742 2.448-1.83 3.196-3.144 0.782-1.402 1.178-2.978 1.15-4.574 0.031-1.608-0.371-3.196-1.167-4.606-0.758-1.312-1.868-2.398-3.211-3.142v0zM44.934 18.82c-0.407 0.753-1.019 1.382-1.768 1.819-0.8 0.433-1.7 0.66-2.615 0.66s-1.815-0.227-2.615-0.66c-0.753-0.44-1.37-1.070-1.786-1.823-0.451-0.836-0.677-1.77-0.656-2.714-0.019-0.95 0.207-1.889 0.658-2.731 0.413-0.758 1.030-1.393 1.785-1.836 0.8-0.433 1.7-0.66 2.615-0.66s1.815 0.227 2.615 0.66c0.752 0.44 1.363 1.074 1.767 1.832 0.442 0.846 0.663 1.785 0.644 2.735 0.020 0.944-0.201 1.878-0.643 2.718v0z"></path>
<path fill="#57bba7" d="M69.516 11.568c-0.798-1.338-1.943-2.449-3.32-3.22s-2.938-1.178-4.527-1.178-3.15 0.406-4.527 1.178c-1.377 0.772-2.522 1.882-3.32 3.22-0.808 1.38-1.222 2.946-1.2 4.534-0.024 1.567 0.353 3.116 1.098 4.505 0.701 1.297 1.74 2.391 3.013 3.172 1.305 0.77 2.803 1.177 4.329 1.177s3.023-0.407 4.329-1.177c0.425-0.26 0.825-0.556 1.195-0.884 0.002 0.265 0.057 0.526 0.163 0.77s0.26 0.465 0.454 0.65c0.194 0.186 0.423 0.332 0.675 0.431s0.521 0.149 0.793 0.146c0.272-0.003 0.54-0.057 0.79-0.161s0.476-0.255 0.666-0.444 0.34-0.413 0.44-0.659c0.101-0.246 0.151-0.508 0.147-0.773v-7.059l-0.005-0.002c-0.028-1.484-0.439-2.937-1.195-4.226zM66.053 18.772c-0.416 0.762-1.033 1.402-1.788 1.854-0.782 0.441-1.67 0.674-2.574 0.673s-1.792-0.233-2.573-0.675c-0.765-0.45-1.393-1.091-1.819-1.856-0.454-0.818-0.685-1.736-0.671-2.667-0.016-0.94 0.215-1.868 0.671-2.697 0.427-0.764 1.055-1.405 1.819-1.856 0.782-0.442 1.669-0.674 2.573-0.675s1.792 0.232 2.574 0.673c0.755 0.452 1.372 1.092 1.788 1.853 0.448 0.832 0.674 1.761 0.658 2.701 0.014 0.93-0.212 1.848-0.658 2.67v0z"></path>
<path fill="#57bba7" d="M82.473 15.028l5.375-4.671c0.19-0.162 0.345-0.358 0.456-0.579s0.177-0.46 0.193-0.705c0.013-0.245-0.027-0.49-0.116-0.719s-0.227-0.437-0.404-0.612c-0.162-0.191-0.364-0.346-0.591-0.457s-0.476-0.175-0.73-0.187c-0.254-0.013-0.508 0.026-0.746 0.114s-0.454 0.223-0.635 0.397l-6.76 5.875v-4.44c0.007-0.26-0.040-0.519-0.137-0.762s-0.244-0.464-0.43-0.65-0.41-0.335-0.656-0.436c-0.246-0.101-0.511-0.153-0.779-0.153s-0.532 0.052-0.779 0.153-0.469 0.25-0.656 0.436c-0.187 0.187-0.333 0.408-0.43 0.65s-0.144 0.502-0.137 0.762v13.842c-0.007 0.26 0.040 0.52 0.137 0.762s0.244 0.464 0.43 0.65c0.187 0.187 0.41 0.335 0.656 0.436s0.511 0.153 0.779 0.153 0.532-0.052 0.779-0.153c0.246-0.101 0.47-0.25 0.656-0.436s0.333-0.408 0.43-0.65c0.097-0.243 0.144-0.502 0.137-0.762v-4.418l1.013-0.881 5.601 6.743c0.161 0.203 0.364 0.37 0.596 0.491s0.488 0.193 0.75 0.211c0.055 0.004 0.109 0.006 0.162 0.006 0.468-0.001 0.922-0.163 1.28-0.457l0.003-0.002c0.211-0.155 0.386-0.352 0.515-0.576s0.208-0.473 0.233-0.73c0.020-0.248-0.011-0.497-0.091-0.733s-0.206-0.455-0.372-0.643l-5.731-6.868z"></path>
<path fill="#57bba7" d="M116.85 8.556c-0.11-0.239-0.27-0.454-0.469-0.632s-0.433-0.313-0.688-0.399c-1.134-0.462-2.049-0.123-2.582 0.968l-4.589 10.094-5.24-10.135c-0.205-0.461-0.59-0.824-1.070-1.008-0.237-0.086-0.49-0.126-0.743-0.117s-0.502 0.066-0.733 0.169c-0.24 0.092-0.459 0.229-0.644 0.404s-0.332 0.384-0.434 0.614c-0.104 0.241-0.15 0.502-0.134 0.764s0.094 0.515 0.228 0.742l6.88 12.726-2.328 5.134c-0.125 0.224-0.202 0.47-0.227 0.724s0.004 0.51 0.083 0.752c0.106 0.241 0.261 0.46 0.456 0.641s0.426 0.323 0.678 0.415c0.293 0.134 0.612 0.209 0.935 0.22 0.533 0 1.253-0.214 1.65-1.215l8.84-19.361c0.125-0.228 0.202-0.479 0.224-0.737s-0.010-0.518-0.095-0.763v0z"></path>
<path fill="#57bba7" d="M119.507 22.5c-0.027-0.128-0.067-0.253-0.117-0.374s-0.114-0.236-0.188-0.345c-0.075-0.11-0.161-0.212-0.257-0.305s-0.2-0.176-0.312-0.248c-0.112-0.073-0.231-0.134-0.356-0.183-0.124-0.051-0.252-0.089-0.384-0.114-0.265-0.053-0.538-0.053-0.803 0-0.132 0.025-0.261 0.063-0.384 0.114-0.125 0.049-0.244 0.11-0.356 0.183s-0.216 0.156-0.312 0.248c-0.096 0.093-0.182 0.195-0.257 0.305-0.074 0.109-0.137 0.224-0.188 0.345s-0.090 0.246-0.117 0.374c-0.054 0.259-0.054 0.525 0 0.784 0.028 0.128 0.067 0.253 0.117 0.374s0.114 0.236 0.188 0.345c0.075 0.11 0.161 0.212 0.257 0.306s0.2 0.175 0.312 0.248c0.112 0.073 0.231 0.135 0.356 0.185s0.253 0.087 0.384 0.112c0.265 0.052 0.538 0.052 0.803 0 0.132-0.026 0.26-0.063 0.384-0.112s0.244-0.112 0.356-0.185c0.112-0.073 0.216-0.156 0.312-0.248 0.096-0.093 0.182-0.196 0.257-0.306 0.074-0.109 0.137-0.224 0.188-0.345s0.090-0.246 0.117-0.374c0.054-0.259 0.054-0.525 0-0.784v0z"></path>
<path fill="#57bba7" d="M19.809 2.984h-4.737v-0.794c0-0.257-0.052-0.511-0.153-0.749s-0.249-0.453-0.436-0.635c-0.187-0.182-0.408-0.326-0.652-0.424s-0.505-0.149-0.769-0.149c-0.264 0-0.525 0.051-0.769 0.149s-0.465 0.242-0.652 0.424c-0.187 0.182-0.335 0.397-0.436 0.635s-0.153 0.492-0.153 0.749v0.794h-4.737c-1.382-0-2.723 0.462-3.796 1.31s-1.816 2.029-2.102 3.345c-0.286 1.317-0.098 2.689 0.531 3.888s1.663 2.149 2.927 2.694v3.206c0.003 2.032 0.715 4.002 2.019 5.588s3.123 2.693 5.158 3.14v0.359c0 0.519 0.212 1.017 0.589 1.384s0.888 0.573 1.421 0.573 1.044-0.206 1.421-0.573c0.377-0.367 0.589-0.865 0.589-1.384v-0.359c2.035-0.447 3.854-1.554 5.158-3.14s2.016-3.556 2.019-5.588v-3.206c1.264-0.545 2.297-1.496 2.927-2.694s0.817-2.571 0.531-3.888c-0.286-1.317-1.028-2.498-2.102-3.345s-2.414-1.31-3.796-1.31zM18.23 17.427c0 1.335-0.544 2.614-1.513 3.558s-2.283 1.474-3.654 1.474-2.685-0.53-3.654-1.474c-0.969-0.944-1.514-2.224-1.514-3.558v-2.702h10.335v2.702zM19.809 10.811h-13.493c-0.264 0-0.526-0.050-0.77-0.148s-0.466-0.242-0.653-0.424c-0.187-0.182-0.335-0.398-0.436-0.635s-0.153-0.492-0.153-0.749c0-0.257 0.052-0.512 0.153-0.749s0.249-0.453 0.436-0.635c0.187-0.182 0.409-0.326 0.653-0.424s0.506-0.149 0.77-0.148h13.493c0.264-0 0.526 0.050 0.77 0.148s0.466 0.242 0.653 0.424c0.187 0.182 0.335 0.398 0.436 0.635s0.153 0.492 0.153 0.749c0 0.257-0.052 0.512-0.153 0.749s-0.249 0.453-0.436 0.635c-0.187 0.182-0.409 0.326-0.653 0.424s-0.506 0.149-0.77 0.148v0z"></path>
<path fill="#57bba7" d="M97.642 20.869h-0.432c-0.514 0-0.869-0.18-1.065-0.541-0.221-0.481-0.321-1.006-0.293-1.533v-15.318c0.009-0.266-0.040-0.53-0.144-0.776s-0.26-0.468-0.458-0.651c-0.195-0.182-0.425-0.325-0.676-0.42s-0.52-0.142-0.79-0.136c-0.275-0.011-0.55 0.032-0.807 0.128s-0.492 0.241-0.689 0.428c-0.19 0.187-0.339 0.411-0.437 0.656s-0.144 0.508-0.134 0.771v15.318c0 2.004 0.437 3.511 1.312 4.523s2.104 1.518 3.688 1.518h0.216c0.674 0.026 1.337-0.169 1.883-0.556 0.233-0.162 0.422-0.376 0.551-0.625s0.194-0.524 0.19-0.803c0.015-0.521-0.179-1.028-0.54-1.412-0.173-0.186-0.385-0.333-0.623-0.432s-0.493-0.146-0.751-0.139v0z"></path>
</svg>
