<!-- Generated by IcoMoon.io -->
<svg version="1.1" xmlns="http://www.w3.org/2000/svg" width="32" height="32" viewBox="0 0 32 32">
<title>paypal</title>
<path d="M29.714 12.571c-0.112-0.112-0.266-0.181-0.436-0.181-0.056 0-0.111 0.008-0.162 0.022l0.004-0.001c-0.198 0.076-0.345 0.245-0.388 0.453l-0.001 0.004c-0.917 5.471-5.617 9.588-11.279 9.588-0.863 0-1.703-0.096-2.511-0.277l0.076 0.014-4.023-0.846c-0.037-0.009-0.080-0.014-0.123-0.014-0.268 0-0.49 0.192-0.539 0.445l-0.001 0.003-2.057 9.531c-0.037 0.070-0.058 0.152-0.058 0.24s0.021 0.17 0.059 0.243l-0.001-0.003c0.105 0.125 0.26 0.204 0.434 0.206h3.635c0.002 0 0.005 0 0.008 0 0.271 0 0.496-0.196 0.54-0.454l0-0.003 1.257-5.737c0.060-0.256 0.287-0.444 0.557-0.444 0.037 0 0.074 0.004 0.109 0.010l-0.004-0.001 6.743 1.463c0.543 0.121 1.166 0.191 1.806 0.191 4.758 0 8.618-3.847 8.64-8.6v-0.002c0-0.028 0.001-0.062 0.001-0.096 0-2.23-0.87-4.257-2.29-5.76l0.004 0.004z"></path>
<path d="M18.971 2.514l-11.474-2.514c-0.109-0.026-0.233-0.041-0.362-0.041-0.333 0-0.643 0.101-0.901 0.273l0.006-0.004c-0.375 0.23-0.643 0.603-0.73 1.041l-0.002 0.010-5.509 25.394c-0.030 0.114-0.048 0.245-0.048 0.38 0 0.329 0.103 0.633 0.28 0.882l-0.003-0.005c0.23 0.375 0.603 0.643 1.041 0.73l0.010 0.002 2.743 0.594h0.366c0.793-0.014 1.452-0.571 1.621-1.314l0.002-0.011 2.126-9.646c0.058-0.259 0.286-0.449 0.558-0.449 0.045 0 0.089 0.005 0.132 0.015l-0.004-0.001 6.743 1.463c0.6 0.15 1.289 0.237 1.997 0.237 2.007 0 3.853-0.692 5.312-1.85l-0.018 0.014c1.978-1.591 3.236-4.007 3.246-6.718v-0.002c-0.052-4.214-3.080-7.705-7.077-8.471l-0.055-0.009zM18.789 11.291c-0.265 1.1-1.24 1.905-2.403 1.905-0.136 0-0.269-0.011-0.4-0.032l0.014 0.002-5.874-1.257c-0.269-0.061-0.467-0.297-0.467-0.58 0-0.037 0.003-0.074 0.010-0.109l-0.001 0.004 0.8-3.657c0.027-0.15 0.121-0.274 0.249-0.342l0.003-0.001c0.064-0.027 0.139-0.043 0.217-0.043s0.153 0.016 0.221 0.044l-0.004-0.001 5.76 1.257c1.102 0.253 1.911 1.225 1.911 2.387 0 0.15-0.014 0.297-0.039 0.44l0.002-0.015z"></path>
</svg>
