<!-- Generated by IcoMoon.io -->
<svg version="1.1" xmlns="http://www.w3.org/2000/svg" width="32" height="32" viewBox="0 0 32 32">
<title>phone</title>
<path d="M20.32 30.766c1.201 0.782 2.671 1.247 4.25 1.247 2.169 0 4.133-0.878 5.556-2.299l1.097-1.097c0.477-0.472 0.772-1.127 0.772-1.851s-0.295-1.379-0.772-1.851l-0-0-4.571-4.571c-0.472-0.477-1.127-0.772-1.851-0.772s-1.379 0.295-1.851 0.772l-0 0c-0.472 0.477-1.127 0.772-1.851 0.772s-1.379-0.295-1.851-0.772l-0-0-7.497-7.52c-0.47-0.471-0.761-1.122-0.761-1.84s0.291-1.369 0.761-1.84l-0 0c0.477-0.472 0.772-1.127 0.772-1.851s-0.295-1.379-0.772-1.851l-0-0-4.571-4.571c-0.472-0.477-1.127-0.772-1.851-0.772s-1.379 0.295-1.851 0.772l-0 0-1.189 1.006c-1.417 1.425-2.293 3.39-2.293 5.559 0 1.577 0.463 3.045 1.26 4.278l-0.019-0.031c5.174 7.568 11.518 13.911 18.841 18.928l0.244 0.158z"></path>
</svg>
