<!-- Generated by IcoMoon.io -->
<svg version="1.1" xmlns="http://www.w3.org/2000/svg" width="235" height="32" viewBox="0 0 235 32">
<title>portal-logo-lat-solid-white-1</title>
<path fill="#ff2c45" d="M7.676 26.155c-0.361-0.361-0.564-0.851-0.564-1.362s0.203-1.001 0.564-1.362l13.476-13.476c0.361-0.361 0.851-0.564 1.362-0.564s1.001 0.203 1.362 0.564c0.361 0.361 0.564 0.851 0.564 1.362s-0.203 1.001-0.564 1.362l-13.476 13.476c-0.361 0.361-0.851 0.564-1.362 0.564s-1.001-0.203-1.362-0.564z"></path>
<path fill="#ff2c45" d="M21.152 19.044l-13.476-13.476c-0.361-0.361-0.564-0.851-0.564-1.362s0.203-1.001 0.564-1.362c0.361-0.361 0.851-0.564 1.362-0.564s1.001 0.203 1.362 0.564l13.476 13.476c0.179 0.179 0.321 0.391 0.418 0.625s0.147 0.484 0.147 0.737c0 0.253-0.050 0.503-0.147 0.737s-0.239 0.446-0.418 0.625-0.391 0.321-0.625 0.418c-0.234 0.097-0.484 0.147-0.737 0.147s-0.504-0.050-0.737-0.147c-0.234-0.097-0.446-0.239-0.625-0.418z"></path>
<path fill="#ff2c45" d="M0.564 19.044c-0.361-0.361-0.564-0.851-0.564-1.362s0.203-1.001 0.564-1.362l13.476-13.476c0.361-0.361 0.851-0.564 1.362-0.564 0.253 0 0.504 0.050 0.737 0.147s0.446 0.239 0.625 0.418c0.179 0.179 0.321 0.391 0.418 0.625s0.147 0.484 0.147 0.737c0 0.253-0.050 0.504-0.147 0.737s-0.239 0.446-0.418 0.625l-13.476 13.476c-0.361 0.361-0.851 0.564-1.362 0.564s-1.001-0.203-1.362-0.564z"></path>
<path fill="#ff2c45" d="M14.040 26.155l-13.476-13.476c-0.361-0.361-0.564-0.851-0.564-1.362s0.203-1.001 0.564-1.362c0.361-0.361 0.851-0.564 1.362-0.564s1.001 0.203 1.362 0.564l13.476 13.476c0.361 0.361 0.564 0.851 0.564 1.362s-0.203 1.001-0.564 1.362-0.851 0.564-1.362 0.564c-0.511 0-1.001-0.203-1.362-0.564z"></path>
<path fill="#ff2c45" d="M7.676 26.155c-0.361-0.361-0.564-0.851-0.564-1.362s0.203-1.001 0.564-1.362l4.641-4.642c0.361-0.361 0.851-0.564 1.362-0.564s1.001 0.203 1.362 0.564c0.361 0.361 0.564 0.851 0.564 1.362s-0.203 1.001-0.564 1.362l-4.641 4.641c-0.361 0.361-0.851 0.564-1.362 0.564s-1.001-0.203-1.362-0.564z"></path>
<path fill="#2d2d2d" d="M143.821 30.812c-0.26 0.007-0.52-0.038-0.764-0.134s-0.465-0.239-0.653-0.421c-0.186-0.181-0.334-0.399-0.431-0.641-0.099-0.241-0.146-0.501-0.138-0.761v-13.318c-0.011-1.167 0.211-2.324 0.657-3.402 0.419-1.012 1.030-1.934 1.796-2.716 0.772-0.777 1.69-1.393 2.702-1.811 2.163-0.876 4.583-0.876 6.746 0 1.016 0.418 1.939 1.034 2.716 1.811s1.393 1.7 1.81 2.716c0.447 1.079 0.669 2.236 0.658 3.402 0.010 1.152-0.193 2.295-0.6 3.373-0.377 1.006-0.947 1.929-1.678 2.716-0.715 0.765-1.574 1.38-2.527 1.811-0.998 0.445-2.077 0.669-3.169 0.657-0.961 0.009-1.917-0.159-2.817-0.497-0.858-0.325-1.646-0.811-2.322-1.431v6.688c0.011 0.262-0.032 0.524-0.129 0.769-0.096 0.244-0.242 0.466-0.429 0.65-0.188 0.184-0.412 0.328-0.658 0.42-0.245 0.093-0.508 0.132-0.771 0.117zM150.362 20.531c0.639 0.005 1.27-0.124 1.855-0.38 0.563-0.245 1.070-0.603 1.49-1.051 0.429-0.463 0.765-1.003 0.992-1.591 0.246-0.628 0.37-1.297 0.366-1.971 0.007-0.684-0.117-1.363-0.366-2-0.227-0.588-0.563-1.128-0.992-1.592-0.43-0.455-0.947-0.818-1.523-1.066-0.575-0.248-1.194-0.376-1.821-0.376-0.626 0-1.245 0.128-1.82 0.376-0.576 0.248-1.094 0.611-1.523 1.066-0.427 0.461-0.76 1.002-0.978 1.592-0.239 0.64-0.358 1.318-0.351 2-0.006 0.673 0.114 1.341 0.351 1.971 0.218 0.59 0.551 1.13 0.978 1.591 0.419 0.449 0.927 0.807 1.489 1.051 0.586 0.256 1.217 0.385 1.855 0.38z"></path>
<path fill="#2d2d2d" d="M169.796 24.094c-1.178 0.012-2.347-0.201-3.446-0.628-1.018-0.393-1.944-0.995-2.716-1.767s-1.375-1.697-1.767-2.716c-0.838-2.231-0.838-4.69 0-6.921 0.392-1.019 0.995-1.944 1.767-2.716s1.697-1.374 2.716-1.767c1.099-0.427 2.268-0.64 3.446-0.628 1.165-0.012 2.319 0.202 3.403 0.628 1.011 0.399 1.93 1 2.701 1.767 0.771 0.776 1.377 1.7 1.782 2.716 0.438 1.106 0.657 2.286 0.643 3.475 0.011 1.178-0.202 2.348-0.629 3.446-0.395 1.014-0.991 1.938-1.752 2.716-0.764 0.769-1.679 1.37-2.688 1.767-1.102 0.43-2.278 0.643-3.46 0.628zM169.796 20.59c0.647 0.007 1.287-0.117 1.884-0.365 0.561-0.234 1.064-0.588 1.475-1.037 0.422-0.469 0.749-1.014 0.964-1.606 0.467-1.323 0.467-2.766 0-4.089-0.216-0.592-0.543-1.138-0.964-1.606-0.412-0.45-0.914-0.808-1.475-1.052-0.597-0.251-1.237-0.38-1.884-0.38s-1.287 0.129-1.884 0.38c-0.562 0.245-1.070 0.603-1.489 1.052-0.43 0.465-0.762 1.011-0.979 1.606-0.466 1.323-0.466 2.766 0 4.089 0.217 0.595 0.55 1.141 0.979 1.606 0.417 0.447 0.925 0.801 1.489 1.037 0.597 0.248 1.238 0.372 1.884 0.365z"></path>
<path fill="#2d2d2d" d="M184.7 22.050c0.018 0.259-0.015 0.518-0.097 0.763-0.083 0.246-0.213 0.473-0.384 0.668-0.321 0.331-0.813 0.496-1.475 0.497-1.305 0-1.958-0.643-1.956-1.928v-13.055c-0.018-0.261 0.018-0.523 0.106-0.769s0.225-0.472 0.405-0.662c0.196-0.174 0.426-0.307 0.673-0.393s0.511-0.121 0.772-0.104c1.169 0 1.811 0.526 1.927 1.577 0.575-0.551 1.248-0.987 1.987-1.285 0.779-0.315 1.613-0.474 2.453-0.467 1.227 0 2.166 0.204 2.819 0.613 0.651 0.409 0.978 0.905 0.978 1.49 0.006 0.432-0.145 0.852-0.424 1.183-0.139 0.168-0.316 0.302-0.516 0.391s-0.417 0.13-0.637 0.12c-0.185 0.002-0.371-0.012-0.554-0.044-0.157-0.029-0.321-0.059-0.497-0.088s-0.37-0.059-0.584-0.088c-0.271-0.033-0.545-0.047-0.818-0.044-1.226 0-2.229 0.316-3.008 0.949s-1.169 1.504-1.169 2.614v8.061z"></path>
<path fill="#2d2d2d" d="M197.632 11.098h-0.847c-0.498 0.024-0.986-0.149-1.358-0.482-0.167-0.154-0.298-0.342-0.387-0.551-0.088-0.209-0.131-0.434-0.125-0.661-0.013-0.238 0.028-0.477 0.115-0.698s0.224-0.422 0.397-0.586c0.376-0.324 0.861-0.492 1.358-0.467h0.847v-3.738c-0.010-0.257 0.035-0.513 0.131-0.752s0.239-0.455 0.424-0.635c0.384-0.348 0.883-0.54 1.401-0.54s1.018 0.193 1.402 0.54c0.184 0.18 0.327 0.396 0.423 0.635s0.141 0.495 0.132 0.752v3.738h1.985c0.495-0.024 0.982 0.143 1.358 0.467 0.173 0.165 0.307 0.365 0.397 0.587 0.088 0.222 0.127 0.46 0.114 0.698 0.007 0.227-0.036 0.452-0.124 0.661-0.089 0.209-0.221 0.397-0.387 0.551-0.371 0.333-0.86 0.506-1.358 0.482h-1.985v6.746c0 0.798 0.175 1.378 0.525 1.738 0.152 0.168 0.337 0.303 0.543 0.396s0.429 0.142 0.655 0.144h0.993c0.232-0.003 0.465 0.044 0.678 0.137 0.214 0.093 0.406 0.231 0.563 0.404 0.346 0.377 0.53 0.876 0.511 1.387 0.007 0.262-0.043 0.523-0.15 0.763-0.106 0.24-0.264 0.453-0.463 0.624-0.449 0.374-1.021 0.567-1.606 0.54h-0.526c-0.758 0.006-1.512-0.107-2.234-0.336-0.669-0.211-1.284-0.571-1.796-1.051-0.529-0.51-0.932-1.135-1.183-1.825-0.299-0.843-0.444-1.734-0.423-2.629v-7.038z"></path>
<path fill="#2d2d2d" d="M215.769 24.095c-1.085 0.009-2.161-0.215-3.154-0.657-0.959-0.428-1.823-1.044-2.541-1.811-0.732-0.787-1.302-1.71-1.679-2.716-0.405-1.078-0.608-2.221-0.598-3.373-0.011-1.167 0.211-2.324 0.657-3.402 0.419-1.016 1.034-1.939 1.811-2.716 0.776-0.777 1.7-1.392 2.716-1.811 1.558-0.646 3.271-0.829 4.932-0.526 1.66 0.303 3.197 1.079 4.429 2.234 0.785 0.75 1.415 1.649 1.853 2.643 0.465 1.053 0.698 2.193 0.687 3.344v6.747c0.007 0.26-0.039 0.52-0.138 0.761-0.097 0.241-0.245 0.46-0.433 0.641-0.269 0.278-0.612 0.471-0.991 0.556-0.377 0.085-0.771 0.057-1.133-0.080s-0.676-0.376-0.903-0.689c-0.227-0.313-0.358-0.686-0.376-1.072-0.68 0.622-1.473 1.108-2.336 1.431-0.897 0.335-1.848 0.503-2.805 0.497zM216.353 20.531c0.627 0.009 1.248-0.114 1.824-0.36s1.095-0.611 1.521-1.071c0.427-0.461 0.76-1.002 0.978-1.591 0.237-0.63 0.355-1.298 0.351-1.971 0.007-0.683-0.113-1.361-0.351-2-0.218-0.589-0.551-1.13-0.978-1.592-0.657-0.684-1.507-1.151-2.435-1.339-0.929-0.188-1.894-0.088-2.765 0.287-0.562 0.245-1.070 0.603-1.489 1.052-0.429 0.463-0.765 1.003-0.993 1.592-0.248 0.637-0.371 1.316-0.365 2-0.006 0.674 0.118 1.344 0.365 1.971 0.228 0.588 0.565 1.128 0.993 1.591 0.419 0.449 0.927 0.807 1.489 1.051 0.586 0.256 1.217 0.385 1.855 0.38z"></path>
<path fill="#2d2d2d" d="M232.303 23.978c-1.461 0-2.614-0.477-3.462-1.431s-1.27-2.434-1.27-4.439v-15.946c-0.008-0.257 0.036-0.513 0.132-0.752 0.095-0.239 0.239-0.455 0.423-0.635 0.384-0.348 0.883-0.54 1.401-0.54 0.519 0 1.018 0.193 1.402 0.54 0.184 0.18 0.328 0.396 0.423 0.635 0.096 0.239 0.141 0.495 0.132 0.752v15.946c-0.017 0.495 0.072 0.988 0.263 1.446 0.175 0.379 0.516 0.569 1.023 0.569h0.408c0.246-0.010 0.49 0.033 0.717 0.126s0.431 0.235 0.598 0.414c0.338 0.381 0.516 0.878 0.497 1.387 0.004 0.269-0.056 0.535-0.175 0.777s-0.295 0.451-0.511 0.61c-0.52 0.38-1.153 0.57-1.796 0.54h-0.205z"></path>
<path fill="#2d2d2d" d="M58.228 11.16c-0.753-1.297-1.834-2.374-3.134-3.122s-2.774-1.142-4.274-1.142-2.974 0.394-4.274 1.142c-1.3 0.748-2.381 1.825-3.134 3.122-0.762 1.338-1.153 2.855-1.133 4.395-0.023 1.519 0.334 3.020 1.037 4.367 0.662 1.257 1.643 2.318 2.844 3.075 1.233 0.747 2.646 1.142 4.087 1.142s2.855-0.395 4.088-1.141c0.39-0.245 0.759-0.524 1.101-0.833 0.013 0.518 0.231 1.010 0.605 1.368s0.875 0.553 1.394 0.543c0.518-0.010 1.011-0.225 1.372-0.597s0.559-0.872 0.552-1.39v-6.841l-0.005-0.002c-0.028-1.435-0.416-2.84-1.128-4.086zM54.937 18.131c-0.39 0.735-0.97 1.352-1.679 1.787-0.734 0.425-1.568 0.649-2.416 0.649s-1.682-0.225-2.416-0.65c-0.718-0.434-1.307-1.052-1.708-1.79-0.426-0.789-0.643-1.675-0.63-2.572-0.016-0.907 0.201-1.802 0.63-2.601 0.401-0.737 0.99-1.355 1.708-1.789 0.734-0.426 1.567-0.65 2.416-0.65s1.682 0.224 2.416 0.649c0.709 0.436 1.288 1.053 1.679 1.787 0.421 0.803 0.633 1.699 0.618 2.605 0.013 0.897-0.199 1.782-0.617 2.576z"></path>
<path fill="#2d2d2d" d="M91.014 11.16c-0.753-1.297-1.834-2.374-3.134-3.122s-2.774-1.142-4.274-1.142-2.974 0.394-4.274 1.142c-1.3 0.748-2.381 1.825-3.134 3.122-0.762 1.338-1.154 2.855-1.133 4.395-0.023 1.519 0.334 3.020 1.037 4.367 0.662 1.257 1.642 2.318 2.844 3.076 1.233 0.747 2.646 1.142 4.088 1.142s2.855-0.395 4.088-1.141c0.39-0.245 0.759-0.524 1.101-0.833 0.013 0.518 0.231 1.010 0.605 1.368s0.876 0.554 1.394 0.544c0.518-0.010 1.011-0.225 1.372-0.597s0.559-0.872 0.552-1.39v-6.841l-0.005-0.002c-0.028-1.435-0.416-2.84-1.128-4.086zM87.722 18.131c-0.39 0.735-0.97 1.352-1.679 1.787-0.734 0.425-1.568 0.649-2.416 0.649s-1.682-0.225-2.416-0.65c-0.718-0.434-1.307-1.052-1.708-1.79-0.427-0.789-0.643-1.675-0.63-2.572-0.016-0.907 0.201-1.802 0.63-2.601 0.401-0.737 0.99-1.355 1.708-1.789 0.734-0.426 1.567-0.65 2.416-0.65s1.682 0.224 2.416 0.649c0.709 0.436 1.288 1.053 1.679 1.787 0.421 0.803 0.633 1.699 0.617 2.605 0.013 0.897-0.199 1.782-0.617 2.576z"></path>
<path fill="#2d2d2d" d="M130.93 11.16c-0.753-1.297-1.834-2.374-3.134-3.122s-2.774-1.142-4.274-1.142-2.974 0.394-4.274 1.142c-1.3 0.748-2.381 1.825-3.134 3.122-0.762 1.338-1.153 2.855-1.133 4.395-0.023 1.519 0.334 3.020 1.037 4.367 0.662 1.257 1.643 2.318 2.844 3.076 1.233 0.747 2.646 1.142 4.088 1.142s2.855-0.395 4.088-1.141c0.39-0.245 0.759-0.524 1.101-0.833 0.013 0.518 0.231 1.010 0.605 1.368s0.875 0.553 1.394 0.543c0.518-0.010 1.011-0.225 1.372-0.597s0.559-0.872 0.552-1.39v-6.841l-0.005-0.002c-0.028-1.435-0.416-2.84-1.128-4.086zM127.638 18.131c-0.39 0.735-0.97 1.352-1.679 1.787-0.734 0.425-1.568 0.649-2.416 0.649s-1.682-0.225-2.416-0.65c-0.718-0.435-1.307-1.052-1.708-1.79-0.426-0.789-0.643-1.675-0.63-2.572-0.016-0.907 0.201-1.802 0.63-2.601 0.401-0.737 0.99-1.355 1.708-1.789 0.734-0.426 1.567-0.65 2.416-0.65s1.682 0.224 2.416 0.649c0.709 0.436 1.288 1.053 1.679 1.787 0.421 0.803 0.633 1.699 0.617 2.605 0.013 0.897-0.199 1.782-0.617 2.576z"></path>
<path fill="#2d2d2d" d="M138.799 22.211c-0.026-0.125-0.063-0.247-0.111-0.364s-0.108-0.229-0.178-0.335c-0.071-0.107-0.153-0.206-0.243-0.297s-0.189-0.171-0.295-0.242c-0.106-0.071-0.219-0.131-0.337-0.178-0.117-0.049-0.239-0.087-0.364-0.111-0.251-0.052-0.51-0.052-0.761 0-0.125 0.024-0.247 0.062-0.364 0.111-0.118 0.048-0.231 0.107-0.337 0.178s-0.205 0.152-0.295 0.242c-0.091 0.091-0.172 0.19-0.243 0.297-0.070 0.106-0.13 0.218-0.178 0.335s-0.085 0.24-0.111 0.364c-0.051 0.252-0.051 0.511 0 0.763 0.026 0.125 0.063 0.246 0.111 0.364s0.108 0.23 0.178 0.335c0.071 0.107 0.153 0.206 0.243 0.297s0.189 0.171 0.295 0.242c0.106 0.071 0.219 0.131 0.337 0.18s0.24 0.085 0.364 0.109c0.251 0.051 0.51 0.051 0.761 0 0.125-0.025 0.247-0.061 0.364-0.109s0.231-0.109 0.337-0.18c0.106-0.071 0.205-0.152 0.295-0.242s0.172-0.19 0.243-0.297c0.070-0.106 0.13-0.218 0.178-0.335s0.085-0.24 0.111-0.364c0.051-0.252 0.051-0.511 0-0.763z"></path>
<path fill="#2d2d2d" d="M40.369 20.84c-0.154-0.178-0.344-0.322-0.559-0.419s-0.447-0.148-0.683-0.147h-0.996c-0.238 0-0.472-0.056-0.684-0.164s-0.396-0.264-0.536-0.455c-0.373-0.474-0.564-1.065-0.539-1.668v-6.77h2.023c0.483 0.017 0.954-0.153 1.314-0.476 0.17-0.155 0.305-0.343 0.397-0.554s0.137-0.438 0.134-0.668c0.008-0.239-0.035-0.477-0.126-0.698s-0.23-0.42-0.405-0.583c-0.36-0.322-0.831-0.493-1.313-0.476h-2.023v-3.752c0.005-0.257-0.041-0.512-0.136-0.751s-0.237-0.456-0.416-0.64-0.395-0.329-0.632-0.429c-0.237-0.1-0.492-0.151-0.749-0.151s-0.511 0.051-0.749 0.151c-0.237 0.1-0.452 0.245-0.632 0.429s-0.322 0.401-0.416 0.64c-0.095 0.239-0.141 0.494-0.136 0.751v3.752h-0.88c-0.483-0.017-0.953 0.153-1.313 0.476-0.175 0.163-0.313 0.362-0.405 0.583s-0.135 0.459-0.126 0.698c-0.003 0.23 0.043 0.458 0.134 0.668s0.227 0.4 0.397 0.554c0.36 0.323 0.831 0.493 1.314 0.476h0.88v6.77c-0.015 1.083 0.235 2.153 0.727 3.117 0.462 0.903 1.155 1.667 2.009 2.214 0.863 0.547 1.867 0.832 2.889 0.82h0.527c0.562 0.020 1.112-0.165 1.548-0.521 0.207-0.172 0.372-0.388 0.485-0.632s0.168-0.511 0.164-0.779c0.016-0.5-0.157-0.989-0.485-1.367z"></path>
<path fill="#2d2d2d" d="M73.44 7.649c-0.661-0.437-1.603-0.649-2.88-0.649-1.207-0.010-2.397 0.293-3.452 0.88-0.37 0.207-0.721 0.446-1.048 0.715-0.056-0.345-0.216-0.665-0.459-0.916-0.192-0.175-0.418-0.31-0.663-0.396s-0.506-0.123-0.766-0.106c-0.259-0.022-0.52 0.013-0.765 0.103s-0.466 0.231-0.65 0.415c-0.184 0.184-0.326 0.406-0.415 0.65s-0.125 0.505-0.103 0.765v13.098c-0.016 0.262 0.022 0.526 0.112 0.772s0.23 0.473 0.412 0.663c0.385 0.346 0.892 0.525 1.409 0.497 0.263 0.016 0.526-0.022 0.773-0.112s0.473-0.231 0.663-0.412c0.345-0.385 0.524-0.892 0.497-1.408v-8.556c-0.014-0.35 0.044-0.698 0.169-1.025s0.316-0.624 0.561-0.874c0.588-0.558 1.326-0.931 2.124-1.072 1.048-0.198 2.126-0.179 3.166 0.057 0.292 0.072 0.595 0.084 0.892 0.034 0.297-0.053 0.573-0.188 0.798-0.388 0.251-0.231 0.42-0.537 0.482-0.873 0.128-0.508 0.082-1.239-0.857-1.86z"></path>
<path fill="#2d2d2d" d="M111.066 11.159c-0.662-1.257-1.643-2.317-2.844-3.076-1.117-0.677-2.385-1.066-3.69-1.131s-2.605 0.195-3.784 0.757c-0.652 0.322-1.258 0.73-1.801 1.213v-6.757c-0.006-0.386-0.124-0.762-0.339-1.083s-0.52-0.571-0.876-0.722c-0.356-0.151-0.748-0.194-1.128-0.126s-0.732 0.246-1.014 0.51c-0.188 0.184-0.336 0.406-0.434 0.65s-0.143 0.507-0.134 0.77l0 13.367c-0.001 1.536 0.394 3.047 1.146 4.387 0.723 1.279 1.772 2.344 3.040 3.086 0.973 0.575 2.051 0.952 3.171 1.109s2.259 0.089 3.353-0.198c1.094-0.287 2.12-0.787 3.019-1.473s1.653-1.543 2.219-2.522c0.762-1.338 1.153-2.855 1.133-4.395 0.023-1.519-0.334-3.020-1.037-4.367zM107.665 18.115c-0.396 0.74-0.98 1.363-1.695 1.803-0.541 0.329-1.145 0.545-1.772 0.633s-1.267 0.046-1.878-0.123c-0.611-0.169-1.181-0.461-1.675-0.858s-0.901-0.891-1.197-1.452c-0.418-0.799-0.631-1.69-0.618-2.592-0.017-0.901 0.195-1.792 0.616-2.588 0.396-0.731 0.98-1.344 1.692-1.773 0.734-0.426 1.567-0.65 2.416-0.65s1.682 0.224 2.416 0.649c0.71 0.436 1.295 1.049 1.697 1.778 0.429 0.793 0.646 1.683 0.629 2.585 0.012 0.902-0.205 1.793-0.631 2.589z"></path>
</svg>
