<!-- Generated by IcoMoon.io -->
<svg version="1.1" xmlns="http://www.w3.org/2000/svg" width="32" height="32" viewBox="0 0 32 32">
<title>sms</title>
<path d="M16 0c-8.837 0-16 7.163-16 16v0c0.011 3.001 0.86 5.801 2.325 8.183l-0.039-0.068c0.037 0.073 0.058 0.16 0.058 0.251s-0.022 0.178-0.060 0.255l0.002-0.003-2.286 5.829c-0.043 0.117-0.068 0.252-0.068 0.392 0 0.287 0.103 0.549 0.275 0.752l-0.001-0.002c0.194 0.254 0.497 0.416 0.838 0.416 0.035 0 0.070-0.002 0.104-0.005l-0.004 0h0.206l7.794-1.44c0.048-0.017 0.103-0.026 0.16-0.026s0.112 0.010 0.164 0.027l-0.004-0.001c1.948 0.909 4.228 1.44 6.633 1.44 8.837 0 16-7.163 16-16s-7.163-16-16-16c-0.034 0-0.067 0-0.101 0l0.005-0zM7.429 18.857c-1.578 0-2.857-1.279-2.857-2.857s1.279-2.857 2.857-2.857c1.578 0 2.857 1.279 2.857 2.857v0c0 1.578-1.279 2.857-2.857 2.857v0zM16 18.857c-1.578 0-2.857-1.279-2.857-2.857s1.279-2.857 2.857-2.857c1.578 0 2.857 1.279 2.857 2.857v0c0 1.578-1.279 2.857-2.857 2.857v0zM24.571 18.857c-1.578 0-2.857-1.279-2.857-2.857s1.279-2.857 2.857-2.857c1.578 0 2.857 1.279 2.857 2.857v0c0 1.578-1.279 2.857-2.857 2.857v0z"></path>
</svg>
