<!-- Generated by IcoMoon.io -->
<svg version="1.1" xmlns="http://www.w3.org/2000/svg" width="32" height="32" viewBox="0 0 32 32">
<title>static-icon</title>
<path d="M0 10.286v-6.857c0-1.894 1.535-3.429 3.429-3.429h6.857c1.894 0 3.429 1.535 3.429 3.429v6.857c0 1.894-1.535 3.429-3.429 3.429h-6.857c-1.894 0-3.429-1.535-3.429-3.429z"></path>
<path d="M18.286 10.286v-6.857c0-1.894 1.535-3.429 3.429-3.429h6.857c1.894 0 3.429 1.535 3.429 3.429v6.857c0 1.894-1.535 3.429-3.429 3.429h-6.857c-1.894 0-3.429-1.535-3.429-3.429z"></path>
<path d="M0 28.571v-6.857c0-1.894 1.535-3.429 3.429-3.429h6.857c1.894 0 3.429 1.535 3.429 3.429v6.857c0 1.894-1.535 3.429-3.429 3.429h-6.857c-1.894 0-3.429-1.535-3.429-3.429z"></path>
<path d="M18.286 28.571v-6.857c0-1.894 1.535-3.429 3.429-3.429h6.857c1.894 0 3.429 1.535 3.429 3.429v6.857c0 1.894-1.535 3.429-3.429 3.429h-6.857c-1.894 0-3.429-1.535-3.429-3.429z"></path>
</svg>
