<!-- Generated by IcoMoon.io -->
<svg version="1.1" xmlns="http://www.w3.org/2000/svg" width="158" height="32" viewBox="0 0 158 32">
<title>taraba-logo-latin-full-color-white-1</title>
<path fill="#2d2d2d" d="M67.742 12.532c-0.846-1.456-2.059-2.664-3.518-3.504s-3.113-1.282-4.797-1.282c-1.684 0-3.338 0.442-4.797 1.282s-2.672 2.048-3.518 3.504c-0.855 1.502-1.294 3.205-1.27 4.933-0.024 1.706 0.379 3.391 1.171 4.902 0.743 1.411 1.843 2.602 3.192 3.452 1.383 0.838 2.97 1.282 4.588 1.282s3.204-0.443 4.588-1.282c0.439-0.275 0.853-0.587 1.237-0.934 0.005 0.284 0.066 0.564 0.179 0.824s0.277 0.495 0.481 0.692c0.204 0.197 0.446 0.351 0.71 0.455s0.546 0.153 0.83 0.148c0.292 0.007 0.582-0.045 0.853-0.154s0.517-0.272 0.723-0.479c0.206-0.207 0.368-0.454 0.475-0.726s0.159-0.562 0.15-0.854v-7.669c-0.034-1.613-0.473-3.191-1.277-4.59zM64.048 20.357c-0.439 0.824-1.089 1.517-1.886 2.005-0.824 0.478-1.76 0.729-2.712 0.729s-1.888-0.252-2.712-0.729c-0.806-0.487-1.467-1.18-1.917-2.007-0.48-0.887-0.725-1.882-0.71-2.89-0.015-1.017 0.229-2.021 0.71-2.917 0.45-0.827 1.111-1.52 1.917-2.007 0.824-0.478 1.76-0.729 2.712-0.729s1.888 0.252 2.712 0.729c0.795 0.49 1.446 1.183 1.886 2.007 0.468 0.9 0.704 1.903 0.686 2.917 0.016 1.006-0.219 2.001-0.686 2.893z"></path>
<path fill="#2d2d2d" d="M104.537 12.532c-0.845-1.456-2.058-2.664-3.517-3.504s-3.113-1.282-4.796-1.282c-1.684 0-3.337 0.442-4.796 1.282s-2.672 2.048-3.517 3.504c-0.855 1.502-1.293 3.205-1.268 4.933-0.026 1.705 0.374 3.39 1.164 4.902 0.743 1.412 1.844 2.602 3.194 3.453 1.384 0.838 2.97 1.282 4.588 1.282s3.204-0.443 4.588-1.282c0.438-0.275 0.851-0.587 1.235-0.934 0.064 0.546 0.33 1.048 0.744 1.409s0.948 0.555 1.497 0.544c0.549-0.011 1.075-0.226 1.475-0.602s0.645-0.889 0.688-1.437v-7.677c-0.034-1.613-0.473-3.191-1.277-4.59zM100.844 20.357c-0.438 0.825-1.089 1.517-1.886 2.005-0.824 0.478-1.759 0.729-2.711 0.729s-1.887-0.252-2.711-0.729c-0.806-0.487-1.469-1.18-1.919-2.007-0.464-0.897-0.707-1.893-0.707-2.904s0.242-2.006 0.707-2.904c0.45-0.827 1.111-1.52 1.917-2.007 0.824-0.478 1.759-0.729 2.711-0.729s1.887 0.252 2.711 0.729c0.796 0.489 1.446 1.181 1.886 2.005 0.472 0.901 0.71 1.906 0.693 2.924 0.015 1.005-0.222 1.999-0.691 2.888z"></path>
<path fill="#2d2d2d" d="M149.345 12.532c-0.846-1.456-2.059-2.664-3.518-3.504s-3.113-1.282-4.797-1.282c-1.684 0-3.338 0.442-4.797 1.282s-2.672 2.048-3.518 3.504c-0.855 1.502-1.294 3.205-1.27 4.933-0.026 1.705 0.374 3.391 1.164 4.902 0.742 1.411 1.843 2.602 3.191 3.452 1.383 0.838 2.97 1.282 4.588 1.282s3.204-0.443 4.588-1.282c0.439-0.275 0.853-0.587 1.237-0.934 0.005 0.284 0.066 0.564 0.179 0.824s0.277 0.495 0.481 0.692 0.446 0.351 0.71 0.455c0.264 0.103 0.546 0.153 0.83 0.148 0.292 0.006 0.582-0.047 0.853-0.156s0.517-0.272 0.723-0.479c0.206-0.207 0.368-0.454 0.475-0.725s0.159-0.562 0.151-0.854v-7.669c-0.032-1.612-0.469-3.191-1.27-4.59zM145.651 20.357c-0.439 0.824-1.090 1.517-1.886 2.005-0.824 0.478-1.76 0.729-2.712 0.729s-1.888-0.252-2.712-0.729c-0.805-0.487-1.467-1.18-1.917-2.007-0.478-0.886-0.721-1.881-0.706-2.888-0.017-1.017 0.226-2.022 0.706-2.919 0.45-0.827 1.111-1.52 1.917-2.007 0.824-0.478 1.76-0.729 2.712-0.729s1.888 0.252 2.712 0.729c0.795 0.49 1.446 1.182 1.886 2.005 0.471 0.902 0.709 1.907 0.693 2.924 0.013 1.005-0.225 1.998-0.693 2.888z"></path>
<path fill="#2d2d2d" d="M158.178 24.487c-0.029-0.14-0.070-0.277-0.124-0.409-0.054-0.131-0.121-0.257-0.199-0.376-0.080-0.12-0.172-0.232-0.274-0.334-0.102-0.1-0.213-0.191-0.332-0.27s-0.245-0.147-0.378-0.199c-0.131-0.056-0.267-0.099-0.407-0.126-0.282-0.057-0.572-0.057-0.854 0-0.14 0.028-0.278 0.070-0.409 0.126-0.133 0.053-0.26 0.119-0.379 0.199s-0.23 0.17-0.332 0.27c-0.101 0.102-0.193 0.214-0.272 0.334-0.078 0.119-0.145 0.245-0.201 0.376-0.053 0.133-0.094 0.27-0.124 0.409-0.059 0.283-0.059 0.574 0 0.857 0.030 0.14 0.071 0.277 0.124 0.409 0.056 0.131 0.124 0.257 0.201 0.376 0.079 0.12 0.17 0.231 0.272 0.332s0.213 0.193 0.332 0.272c0.119 0.080 0.246 0.147 0.379 0.201s0.269 0.096 0.409 0.124c0.141 0.028 0.284 0.042 0.427 0.042 0.286 0 0.57-0.056 0.834-0.166 0.133-0.054 0.26-0.121 0.378-0.201s0.231-0.171 0.332-0.272c0.103-0.101 0.195-0.212 0.274-0.332 0.078-0.119 0.145-0.245 0.199-0.376s0.095-0.269 0.124-0.409c0.059-0.283 0.059-0.574 0-0.857z"></path>
<path fill="#2d2d2d" d="M8.631 30c-0.201-0.201-0.36-0.439-0.469-0.702s-0.165-0.544-0.165-0.828c0-0.284 0.056-0.565 0.165-0.828s0.268-0.501 0.469-0.702l15.125-15.125c0.406-0.406 0.956-0.633 1.529-0.633s1.124 0.228 1.529 0.633c0.406 0.406 0.633 0.956 0.633 1.529s-0.228 1.124-0.633 1.529l-15.125 15.125c-0.406 0.405-0.956 0.633-1.529 0.633s-1.123-0.228-1.529-0.633z"></path>
<path fill="#2d2d2d" d="M23.756 22.017l-15.125-15.125c-0.395-0.408-0.613-0.954-0.609-1.521s0.232-1.11 0.633-1.511c0.401-0.401 0.944-0.629 1.511-0.634s1.114 0.213 1.522 0.608l15.127 15.127c0.394 0.408 0.613 0.954 0.608 1.522s-0.232 1.11-0.634 1.511c-0.401 0.401-0.944 0.628-1.511 0.633s-1.114-0.214-1.521-0.609z"></path>
<path fill="#2d2d2d" d="M0.648 22.017c-0.405-0.406-0.633-0.956-0.633-1.529s0.228-1.123 0.633-1.529l15.125-15.125c0.201-0.201 0.439-0.36 0.702-0.469s0.544-0.165 0.828-0.165c0.284 0 0.565 0.056 0.828 0.165s0.501 0.268 0.702 0.469c0.201 0.201 0.36 0.439 0.469 0.702s0.165 0.544 0.165 0.828-0.056 0.565-0.165 0.828c-0.109 0.262-0.268 0.501-0.469 0.702l-15.125 15.125c-0.201 0.201-0.439 0.36-0.702 0.469s-0.544 0.165-0.828 0.165-0.565-0.056-0.828-0.165c-0.262-0.109-0.501-0.268-0.702-0.469z"></path>
<path fill="#2d2d2d" d="M15.774 30l-15.125-15.125c-0.406-0.406-0.633-0.956-0.633-1.529s0.228-1.124 0.633-1.529c0.406-0.406 0.956-0.633 1.529-0.633s1.124 0.228 1.529 0.633l15.125 15.125c0.406 0.406 0.633 0.956 0.633 1.529s-0.228 1.124-0.633 1.529c-0.406 0.406-0.956 0.633-1.529 0.633s-1.124-0.228-1.529-0.633z"></path>
<path fill="#2d2d2d" d="M8.631 30c-0.201-0.201-0.36-0.439-0.469-0.702s-0.165-0.544-0.165-0.828c0-0.284 0.056-0.565 0.165-0.828s0.268-0.501 0.469-0.702l5.21-5.21c0.408-0.394 0.954-0.613 1.522-0.608s1.11 0.232 1.511 0.634c0.401 0.401 0.628 0.944 0.633 1.511s-0.214 1.114-0.609 1.521l-5.208 5.21c-0.406 0.405-0.956 0.633-1.529 0.633s-1.123-0.228-1.529-0.633z"></path>
<path fill="#2d2d2d" d="M47.693 23.401c-0.173-0.2-0.387-0.361-0.627-0.471s-0.502-0.166-0.767-0.164h-1.107c-0.267 0-0.53-0.063-0.768-0.184s-0.444-0.296-0.602-0.511c-0.418-0.532-0.633-1.196-0.606-1.872v-7.6h2.264c0.543 0.019 1.072-0.173 1.476-0.536 0.191-0.174 0.342-0.386 0.445-0.622s0.154-0.492 0.151-0.75c0.009-0.269-0.040-0.536-0.143-0.784s-0.258-0.471-0.455-0.654c-0.404-0.362-0.932-0.553-1.474-0.533h-2.273v-4.205c0-0.575-0.228-1.127-0.635-1.534s-0.959-0.635-1.534-0.635-1.127 0.228-1.534 0.635c-0.407 0.407-0.635 0.958-0.635 1.534v4.205h-0.989c-0.542-0.019-1.070 0.172-1.474 0.533-0.196 0.183-0.351 0.407-0.453 0.655s-0.151 0.515-0.142 0.784c-0.004 0.258 0.048 0.514 0.15 0.75s0.254 0.449 0.445 0.622c0.404 0.362 0.932 0.554 1.474 0.536h0.989v7.598c-0.017 1.216 0.264 2.417 0.817 3.499 0.517 1.014 1.295 1.871 2.253 2.485 0.969 0.614 2.095 0.934 3.242 0.921h0.591c0.631 0.022 1.248-0.185 1.737-0.584 0.232-0.193 0.418-0.436 0.544-0.71s0.189-0.573 0.184-0.875c0.017-0.561-0.177-1.108-0.544-1.531z"></path>
<path fill="#2d2d2d" d="M84.815 8.592c-0.741-0.491-1.799-0.728-3.233-0.728-1.355-0.011-2.689 0.329-3.873 0.987-0.416 0.232-0.81 0.501-1.177 0.803-0.062-0.387-0.241-0.747-0.513-1.029-0.376-0.374-0.916-0.564-1.605-0.564-0.291-0.025-0.584 0.015-0.858 0.115s-0.523 0.259-0.73 0.466-0.365 0.456-0.466 0.73c-0.1 0.274-0.14 0.567-0.115 0.858v14.702c0 0.695 0.197 1.237 0.586 1.611 0.433 0.388 1.002 0.588 1.582 0.558 0.693 0 1.235-0.197 1.611-0.589 0.388-0.432 0.588-1 0.558-1.58v-9.603c-0.015-0.393 0.049-0.784 0.19-1.151s0.355-0.701 0.629-0.982c0.659-0.626 1.487-1.044 2.381-1.202 1.177-0.224 2.387-0.202 3.554 0.064 0.328 0.080 0.668 0.093 1 0.038 0.33-0.064 0.636-0.217 0.885-0.443 0.281-0.26 0.472-0.604 0.542-0.98 0.157-0.551 0.104-1.383-0.949-2.080z"></path>
<path fill="#2d2d2d" d="M127.047 12.532c-0.742-1.411-1.843-2.602-3.191-3.453-1.254-0.759-2.677-1.195-4.142-1.269s-2.924 0.218-4.248 0.848c-0.731 0.362-1.411 0.82-2.021 1.361v-7.585c0.013-0.294-0.035-0.587-0.141-0.861s-0.269-0.523-0.478-0.73c-0.208-0.207-0.458-0.369-0.732-0.474s-0.568-0.152-0.862-0.137c-0.288-0.008-0.575 0.042-0.844 0.147s-0.514 0.261-0.721 0.462c-0.211 0.207-0.377 0.455-0.487 0.73s-0.161 0.569-0.151 0.864v15.005c0.002 1.725 0.448 3.421 1.295 4.924 0.826 1.463 2.032 2.675 3.49 3.508s3.115 1.258 4.794 1.228c1.686 0.033 3.349-0.39 4.816-1.223s2.68-2.046 3.515-3.511c0.857-1.504 1.297-3.211 1.272-4.942 0.024-1.702-0.376-3.384-1.164-4.893zM123.231 20.34c-0.444 0.831-1.101 1.529-1.903 2.023-0.824 0.477-1.759 0.728-2.711 0.728s-1.887-0.251-2.711-0.728c-0.805-0.489-1.461-1.187-1.899-2.021-0.47-0.899-0.709-1.902-0.693-2.917-0.019-1.011 0.219-2.011 0.691-2.906 0.444-0.822 1.1-1.51 1.901-1.992 0.824-0.478 1.759-0.729 2.711-0.729s1.888 0.252 2.711 0.729c0.796 0.488 1.453 1.175 1.906 1.992 0.481 0.892 0.724 1.893 0.706 2.906 0.014 1.016-0.229 2.019-0.708 2.915z"></path>
</svg>
