<!-- Generated by IcoMoon.io -->
<svg version="1.1" xmlns="http://www.w3.org/2000/svg" width="32" height="32" viewBox="0 0 32 32">
<title>text</title>
<path d="M27.429 27.429h-22.857c-1.262 0-2.286 1.023-2.286 2.286s1.023 2.286 2.286 2.286v0h22.857c1.262 0 2.286-1.023 2.286-2.286s-1.023-2.286-2.286-2.286v0z"></path>
<path d="M4.686 23.749c0.311 0.169 0.681 0.268 1.074 0.268 0.848 0 1.589-0.462 1.983-1.148l0.006-0.011 1.92-3.817c0.163-0.426 0.558-0.728 1.026-0.754l0.003-0h10.606c0.447 0.005 0.834 0.261 1.026 0.633l0.003 0.007 1.92 3.931c0.354 0.833 1.165 1.407 2.11 1.407 1.262 0 2.286-1.023 2.286-2.286 0-0.435-0.122-0.842-0.333-1.189l0.006 0.010-9.394-18.88c-0.5-1.139-1.618-1.92-2.918-1.92-0.003 0-0.006 0-0.008 0h0c-0.015-0-0.032-0-0.049-0-1.24 0-2.31 0.732-2.8 1.787l-0.008 0.019-9.463 18.88c-0.153 0.299-0.243 0.652-0.243 1.026 0 0.884 0.502 1.651 1.236 2.031l0.013 0.006zM15.497 7.314c0.082-0.19 0.268-0.32 0.484-0.32 0.007 0 0.013 0 0.020 0l-0.001-0c0.001 0 0.003-0 0.004-0 0.22 0 0.41 0.13 0.497 0.317l0.001 0.003 2.811 5.577c0.042 0.080 0.067 0.174 0.067 0.274s-0.025 0.195-0.069 0.278l0.002-0.003c-0.084 0.167-0.254 0.28-0.451 0.28-0.026 0-0.052-0.002-0.078-0.006l0.003 0h-5.577c-0.004 0-0.009 0-0.015 0-0.206 0-0.386-0.109-0.487-0.272l-0.001-0.002c-0.044-0.079-0.070-0.174-0.070-0.274s0.026-0.195 0.072-0.277l-0.002 0.003z"></path>
</svg>
