<!-- Generated by IcoMoon.io -->
<svg version="1.1" xmlns="http://www.w3.org/2000/svg" width="25" height="32" viewBox="0 0 25 32">
<title>theme-icon</title>
<path d="M17.362 32h-9.579c-0.476 0-0.933-0.181-1.27-0.502s-0.526-0.758-0.526-1.212 0.189-0.891 0.526-1.212c0.337-0.322 0.794-0.502 1.27-0.502h9.579c0.476 0 0.933 0.181 1.27 0.502s0.526 0.758 0.526 1.212-0.189 0.891-0.526 1.212c-0.337 0.322-0.794 0.502-1.27 0.502z"></path>
<path d="M19.156 23.428c-0.001 0.757-0.317 1.483-0.878 2.019s-1.322 0.837-2.115 0.838h-7.184c-0.793-0.001-1.554-0.303-2.115-0.838s-0.877-1.262-0.878-2.019v-1.205c-2.332-1.369-4.132-3.427-5.127-5.862s-1.13-5.113-0.385-7.627c0.745-2.515 2.33-4.728 4.513-6.305s4.846-2.429 7.584-2.429c2.738 0 5.4 0.853 7.584 2.429s3.768 3.79 4.513 6.305 0.61 5.193-0.385 7.627c-0.995 2.435-2.795 4.493-5.127 5.862v1.205zM9.578 22.285c0 0.152 0.063 0.297 0.175 0.404s0.265 0.167 0.423 0.167h4.789c0.159 0 0.311-0.060 0.423-0.167s0.175-0.253 0.175-0.404v-1.070c-0-0.319 0.093-0.632 0.269-0.904s0.428-0.491 0.727-0.633c1.814-0.859 3.272-2.278 4.134-4.027s1.081-3.725 0.619-5.608c-0.462-1.882-1.577-3.56-3.164-4.762s-3.553-1.855-5.578-1.855-3.991 0.654-5.578 1.855c-1.587 1.201-2.702 2.879-3.164 4.762s-0.244 3.859 0.619 5.608 2.32 3.168 4.134 4.027c0.299 0.142 0.551 0.361 0.727 0.633s0.269 0.584 0.269 0.904v1.070z"></path>
</svg>
