<!-- Generated by IcoMoon.io -->
<svg version="1.1" xmlns="http://www.w3.org/2000/svg" width="32" height="32" viewBox="0 0 32 32">
<title>trash</title>
<path fill="#ffa039" d="M32 9.714c-0.006-0.453-0.188-0.885-0.509-1.206s-0.753-0.503-1.206-0.509h-6.286c-0.152 0-0.297-0.060-0.404-0.167s-0.167-0.253-0.167-0.404c0-1.97-0.783-3.86-2.176-5.253s-3.283-2.176-5.253-2.176-3.86 0.783-5.253 2.176c-1.393 1.393-2.176 3.283-2.176 5.253 0 0.152-0.060 0.297-0.167 0.404s-0.252 0.167-0.404 0.167h-6.286c-0.455 0-0.891 0.181-1.212 0.502s-0.502 0.758-0.502 1.212c0 0.455 0.181 0.891 0.502 1.212s0.758 0.502 1.212 0.502h2.286c0.152 0 0.297 0.060 0.404 0.167s0.167 0.252 0.167 0.404v16.571c0 0.909 0.361 1.781 1.004 2.424s1.515 1.004 2.424 1.004h16c0.909 0 1.781-0.361 2.424-1.004s1.004-1.515 1.004-2.424v-16.571c0-0.152 0.060-0.297 0.167-0.404s0.252-0.167 0.404-0.167h2.286c0.453-0.006 0.885-0.188 1.206-0.509s0.503-0.753 0.509-1.206zM12 7.429c0-1.061 0.421-2.078 1.172-2.828s1.768-1.172 2.828-1.172 2.078 0.421 2.828 1.172c0.75 0.75 1.172 1.768 1.172 2.828 0 0.152-0.060 0.297-0.167 0.404s-0.253 0.167-0.404 0.167h-6.857c-0.151 0-0.297-0.060-0.404-0.167s-0.167-0.253-0.167-0.404zM13.143 25.143c0 0.455-0.181 0.891-0.502 1.212s-0.757 0.502-1.212 0.502-0.891-0.181-1.212-0.502c-0.322-0.322-0.502-0.758-0.502-1.212v-9.143c0-0.455 0.181-0.891 0.502-1.212s0.758-0.502 1.212-0.502 0.891 0.181 1.212 0.502c0.322 0.322 0.502 0.758 0.502 1.212v9.143zM22.857 25.143c0 0.455-0.181 0.891-0.502 1.212s-0.758 0.502-1.212 0.502-0.891-0.181-1.212-0.502c-0.322-0.322-0.502-0.758-0.502-1.212v-9.143c0-0.455 0.18-0.891 0.502-1.212s0.758-0.502 1.212-0.502 0.891 0.181 1.212 0.502c0.321 0.322 0.502 0.758 0.502 1.212v9.143z"></path>
</svg>
