<!-- Generated by IcoMoon.io -->
<svg version="1.1" xmlns="http://www.w3.org/2000/svg" width="232" height="32" viewBox="0 0 232 32">
<title>trb-edu-logo-solid-white</title>
<path fill="#ffbe00" d="M10.083 29.965c-0.212-0.212-0.379-0.463-0.494-0.739s-0.173-0.573-0.173-0.872c0-0.299 0.059-0.596 0.173-0.872s0.282-0.528 0.494-0.739l15.936-15.942c0.427-0.427 1.007-0.668 1.611-0.668s1.184 0.24 1.611 0.668c0.427 0.427 0.667 1.007 0.667 1.612s-0.24 1.184-0.667 1.612l-15.936 15.942c-0.427 0.427-1.007 0.668-1.611 0.668s-1.184-0.24-1.611-0.668v0z"></path>
<path fill="#ffbe00" d="M26.019 21.553l-15.936-15.942c-0.427-0.427-0.667-1.007-0.667-1.612s0.24-1.184 0.667-1.612c0.427-0.427 1.007-0.668 1.611-0.668s1.184 0.24 1.611 0.668l15.936 15.942c0.427 0.428 0.667 1.007 0.667 1.612s-0.24 1.184-0.667 1.612c-0.427 0.428-1.007 0.668-1.611 0.668s-1.184-0.24-1.611-0.668v0z"></path>
<path fill="#ffbe00" d="M1.674 21.553c-0.212-0.212-0.379-0.463-0.494-0.739s-0.173-0.573-0.173-0.872c0-0.299 0.059-0.596 0.173-0.872s0.282-0.528 0.494-0.739l15.936-15.942c0.427-0.427 1.007-0.668 1.611-0.668s1.184 0.24 1.611 0.668c0.427 0.427 0.667 1.007 0.667 1.612s-0.24 1.184-0.667 1.612l-15.936 15.942c-0.427 0.427-1.007 0.668-1.611 0.668s-1.184-0.24-1.611-0.668v0z"></path>
<path fill="#ffbe00" d="M17.609 29.965l-15.936-15.942c-0.424-0.428-0.662-1.007-0.66-1.61s0.241-1.181 0.667-1.607c0.426-0.426 1.004-0.666 1.606-0.668s1.181 0.236 1.609 0.661l15.936 15.942c0.427 0.428 0.667 1.007 0.667 1.612s-0.24 1.184-0.667 1.612c-0.427 0.427-1.007 0.668-1.611 0.668s-1.184-0.24-1.611-0.668z"></path>
<path fill="#ffbe00" d="M10.083 29.965c-0.212-0.212-0.379-0.463-0.494-0.739s-0.173-0.573-0.173-0.872c0-0.299 0.059-0.596 0.173-0.872s0.282-0.528 0.494-0.739l5.489-5.491c0.427-0.428 1.007-0.668 1.611-0.668s1.184 0.24 1.611 0.668c0.427 0.427 0.667 1.007 0.667 1.612s-0.24 1.184-0.667 1.612l-5.489 5.491c-0.212 0.212-0.463 0.38-0.739 0.494s-0.573 0.173-0.872 0.173c-0.299 0-0.595-0.059-0.872-0.173s-0.528-0.282-0.739-0.494z"></path>
<path fill="#2d2d2d" d="M176.654 28.658c-1.443 0.016-2.877-0.238-4.226-0.748-1.237-0.461-2.363-1.174-3.309-2.093s-1.691-2.025-2.189-3.247c-0.53-1.303-0.795-2.699-0.781-4.106-0.016-1.414 0.23-2.818 0.731-4.141 0.454-1.205 1.154-2.301 2.054-3.221s1.984-1.641 3.178-2.119c1.278-0.51 2.645-0.765 4.019-0.749 1.334-0.024 2.661 0.225 3.894 0.732 1.106 0.466 2.096 1.166 2.904 2.051 0.816 0.908 1.438 1.974 1.826 3.132 0.43 1.289 0.642 2.642 0.626 4.001 0.008 0.278-0.042 0.554-0.146 0.812-0.106 0.257-0.262 0.49-0.462 0.683-0.211 0.2-0.459 0.355-0.731 0.456s-0.562 0.148-0.851 0.135h-12.485c0.33 1.25 1.078 2.35 2.12 3.115 1.107 0.814 2.454 1.236 3.827 1.2 0.688-0.003 1.371-0.127 2.018-0.365 0.594-0.203 1.155-0.49 1.667-0.852 0.438-0.339 0.978-0.522 1.531-0.521 0.571 0.005 1.12 0.229 1.531 0.626 0.219 0.183 0.394 0.412 0.515 0.67 0.12 0.258 0.182 0.54 0.181 0.825 0 0.296-0.072 0.588-0.213 0.849-0.139 0.261-0.341 0.484-0.587 0.648-0.928 0.72-1.976 1.268-3.098 1.617-1.141 0.391-2.339 0.596-3.546 0.609v0zM180.725 16.341c-0.288-1.1-0.864-2.103-1.67-2.904-0.39-0.367-0.85-0.652-1.35-0.84-0.502-0.188-1.035-0.276-1.571-0.257-1.262-0.057-2.506 0.332-3.512 1.097-0.915 0.746-1.573 1.762-1.88 2.904h9.984z"></path>
<path fill="#2d2d2d" d="M198.611 28.658c-1.378 0.012-2.742-0.254-4.016-0.782-1.21-0.498-2.309-1.232-3.235-2.157-0.925-0.926-1.658-2.026-2.157-3.236-0.53-1.285-0.795-2.664-0.781-4.055-0.013-1.372 0.23-2.733 0.714-4.017 0.448-1.199 1.128-2.298 1.998-3.236 0.854-0.913 1.883-1.647 3.026-2.158 2.251-0.98 4.797-1.042 7.094-0.174 1.016 0.389 1.957 0.948 2.782 1.654v-7.932c-0.013-0.313 0.042-0.626 0.158-0.917 0.118-0.291 0.296-0.554 0.522-0.771 0.226-0.213 0.49-0.38 0.779-0.49s0.598-0.163 0.907-0.154c0.315-0.015 0.63 0.034 0.926 0.145s0.566 0.281 0.795 0.499c0.216 0.223 0.386 0.487 0.496 0.777s0.16 0.6 0.146 0.91v15.863c0.014 1.39-0.251 2.769-0.781 4.055-0.498 1.207-1.226 2.305-2.139 3.236-0.918 0.925-2.011 1.658-3.216 2.158-1.274 0.527-2.64 0.793-4.019 0.782v0zM198.611 24.414c0.747 0.011 1.486-0.135 2.173-0.429s1.302-0.728 1.81-1.276c0.509-0.55 0.906-1.195 1.166-1.897 0.283-0.763 0.424-1.571 0.416-2.384 0.010-0.807-0.133-1.609-0.416-2.364-0.264-0.696-0.659-1.334-1.166-1.879-0.781-0.814-1.794-1.371-2.899-1.594s-2.254-0.105-3.291 0.341c-0.67 0.292-1.274 0.718-1.774 1.253-0.506 0.547-0.907 1.184-1.179 1.879-0.298 0.752-0.446 1.555-0.437 2.364-0.008 0.815 0.139 1.625 0.437 2.384 0.27 0.701 0.67 1.345 1.179 1.897 0.501 0.534 1.104 0.96 1.774 1.252 0.696 0.305 1.45 0.459 2.208 0.453v0z"></path>
<path fill="#2d2d2d" d="M220.781 28.692c-1.216 0.012-2.424-0.2-3.563-0.626-1.072-0.396-2.045-1.019-2.854-1.826-0.826-0.842-1.467-1.85-1.878-2.956-0.472-1.299-0.702-2.673-0.677-4.055v-8.558c-0.008-0.31 0.046-0.619 0.163-0.906s0.291-0.548 0.514-0.764c0.459-0.425 1.061-0.661 1.686-0.661s1.229 0.236 1.686 0.661c0.224 0.216 0.4 0.476 0.517 0.764s0.173 0.597 0.163 0.907v8.558c-0.018 0.783 0.112 1.561 0.382 2.296 0.224 0.604 0.581 1.151 1.045 1.6 0.446 0.423 0.981 0.744 1.565 0.94 0.627 0.214 1.285 0.32 1.947 0.314 0.626 0.004 1.245-0.114 1.826-0.348 0.547-0.219 1.048-0.537 1.477-0.94 0.421-0.396 0.752-0.877 0.974-1.41 0.234-0.555 0.352-1.153 0.347-1.756v-9.255c-0.013-0.313 0.042-0.626 0.158-0.917 0.118-0.291 0.296-0.554 0.522-0.771 0.47-0.415 1.077-0.644 1.704-0.644s1.234 0.229 1.704 0.644c0.216 0.223 0.384 0.488 0.494 0.778s0.16 0.6 0.147 0.91v15.518c0.014 0.312-0.038 0.624-0.154 0.915-0.114 0.291-0.288 0.555-0.51 0.775s-0.49 0.39-0.782 0.5c-0.291 0.11-0.605 0.158-0.917 0.14-0.55 0.017-1.090-0.168-1.514-0.521-0.4-0.341-0.675-0.807-0.781-1.322-0.69 0.636-1.493 1.138-2.366 1.478-0.966 0.37-1.992 0.553-3.026 0.538z"></path>
<path fill="#2d2d2d" d="M69.871 13.285c-0.891-1.535-2.169-2.808-3.706-3.694s-3.28-1.351-5.054-1.351-3.517 0.466-5.054 1.351c-1.537 0.885-2.815 2.159-3.706 3.694-0.902 1.583-1.364 3.378-1.34 5.2-0.027 1.797 0.394 3.573 1.227 5.167 0.782 1.487 1.942 2.742 3.363 3.639 1.458 0.884 3.13 1.351 4.834 1.351s3.376-0.467 4.834-1.35c0.462-0.29 0.897-0.62 1.302-0.985 0.016 0.613 0.273 1.195 0.716 1.618s1.035 0.655 1.648 0.643c0.613-0.012 1.196-0.266 1.622-0.706s0.661-1.032 0.653-1.645v-8.094l-0.005-0.002c-0.033-1.698-0.492-3.36-1.334-4.835v0zM65.978 21.532c-0.462 0.869-1.147 1.599-1.986 2.114-0.868 0.503-1.854 0.768-2.857 0.768s-1.989-0.266-2.857-0.769c-0.849-0.514-1.546-1.245-2.020-2.117-0.504-0.934-0.761-1.982-0.745-3.043-0.018-1.073 0.238-2.132 0.745-3.078 0.474-0.872 1.171-1.603 2.020-2.117 0.868-0.504 1.853-0.769 2.857-0.769s1.989 0.265 2.857 0.768c0.838 0.515 1.524 1.245 1.986 2.114 0.497 0.95 0.749 2.010 0.73 3.082 0.016 1.061-0.235 2.109-0.73 3.047v0z"></path>
<path fill="#2d2d2d" d="M108.643 13.285c-0.891-1.535-2.169-2.808-3.706-3.694s-3.28-1.351-5.054-1.351c-1.774 0-3.517 0.466-5.054 1.351s-2.815 2.159-3.706 3.694c-0.902 1.583-1.364 3.378-1.34 5.2-0.027 1.797 0.394 3.573 1.226 5.167 0.782 1.487 1.942 2.742 3.363 3.639 1.458 0.883 3.13 1.35 4.834 1.351s3.376-0.467 4.834-1.35c0.462-0.29 0.897-0.62 1.302-0.985 0.016 0.613 0.273 1.194 0.716 1.618s1.035 0.655 1.648 0.643c0.613-0.012 1.196-0.266 1.622-0.706s0.661-1.032 0.653-1.644v-8.094l-0.006-0.002c-0.033-1.698-0.492-3.36-1.334-4.835zM104.75 21.532c-0.462 0.869-1.147 1.599-1.986 2.114-0.868 0.503-1.854 0.768-2.857 0.768s-1.989-0.266-2.857-0.769c-0.849-0.514-1.546-1.245-2.020-2.117-0.504-0.934-0.761-1.981-0.745-3.043-0.018-1.073 0.238-2.132 0.745-3.078 0.474-0.872 1.171-1.603 2.020-2.117 0.868-0.504 1.853-0.769 2.857-0.769s1.989 0.264 2.857 0.768c0.838 0.515 1.524 1.245 1.986 2.114 0.498 0.95 0.749 2.010 0.73 3.082 0.016 1.061-0.235 2.109-0.73 3.047v0z"></path>
<path fill="#2d2d2d" d="M155.849 13.285c-0.891-1.535-2.169-2.808-3.706-3.694s-3.28-1.351-5.054-1.351-3.517 0.466-5.054 1.351c-1.537 0.885-2.815 2.159-3.706 3.694-0.902 1.583-1.364 3.378-1.34 5.2-0.027 1.797 0.394 3.573 1.226 5.167 0.782 1.487 1.942 2.742 3.364 3.639 1.458 0.884 3.13 1.351 4.834 1.351s3.376-0.467 4.834-1.35c0.462-0.29 0.897-0.62 1.302-0.985 0.016 0.613 0.273 1.195 0.716 1.618s1.036 0.655 1.648 0.643c0.613-0.012 1.196-0.266 1.622-0.706s0.661-1.032 0.653-1.645v-8.094l-0.006-0.002c-0.033-1.698-0.492-3.36-1.334-4.835v0zM151.956 21.532c-0.462 0.869-1.147 1.599-1.986 2.114-0.868 0.503-1.854 0.768-2.857 0.768s-1.989-0.266-2.857-0.769c-0.849-0.514-1.546-1.245-2.020-2.117-0.504-0.934-0.761-1.982-0.745-3.043-0.018-1.073 0.238-2.132 0.745-3.078 0.474-0.872 1.171-1.603 2.020-2.117 0.868-0.504 1.854-0.769 2.857-0.769s1.989 0.264 2.857 0.768c0.838 0.515 1.524 1.245 1.986 2.114 0.498 0.95 0.749 2.010 0.73 3.082 0.016 1.061-0.235 2.109-0.73 3.047v0z"></path>
<path fill="#2d2d2d" d="M165.157 25.886c-0.030-0.147-0.075-0.292-0.131-0.431-0.058-0.139-0.128-0.272-0.211-0.397-0.083-0.127-0.181-0.244-0.288-0.352s-0.224-0.202-0.349-0.286c-0.125-0.084-0.259-0.155-0.398-0.211-0.139-0.059-0.283-0.103-0.432-0.132-0.296-0.061-0.602-0.061-0.899 0-0.147 0.029-0.291 0.073-0.43 0.132-0.141 0.056-0.274 0.127-0.4 0.211-0.125 0.084-0.242 0.18-0.349 0.286s-0.203 0.225-0.288 0.352c-0.082 0.125-0.152 0.258-0.21 0.397s-0.101 0.284-0.133 0.431c-0.059 0.298-0.059 0.605 0 0.903 0.032 0.147 0.075 0.292 0.133 0.431s0.128 0.272 0.21 0.397c0.085 0.127 0.181 0.244 0.288 0.352 0.107 0.106 0.224 0.202 0.349 0.286 0.126 0.084 0.261 0.155 0.4 0.213s0.283 0.1 0.43 0.129c0.298 0.060 0.603 0.060 0.899 0 0.149-0.029 0.293-0.073 0.432-0.129s0.272-0.129 0.398-0.213c0.125-0.084 0.242-0.18 0.349-0.286 0.107-0.107 0.205-0.225 0.288-0.352 0.083-0.125 0.154-0.258 0.211-0.397 0.056-0.139 0.101-0.284 0.131-0.431 0.061-0.298 0.061-0.605 0-0.903v0z"></path>
<path fill="#2d2d2d" d="M48.751 24.737c-0.182-0.211-0.408-0.38-0.661-0.496s-0.529-0.175-0.808-0.174h-1.178c-0.281 0-0.558-0.066-0.809-0.194s-0.468-0.312-0.634-0.539c-0.441-0.561-0.667-1.26-0.638-1.973v-8.009h2.392c0.571 0.020 1.128-0.182 1.553-0.563 0.201-0.183 0.361-0.406 0.469-0.656s0.163-0.519 0.159-0.791c0.010-0.283-0.041-0.565-0.149-0.826s-0.272-0.497-0.479-0.69c-0.426-0.381-0.982-0.583-1.553-0.563h-2.392v-4.439c0.006-0.304-0.049-0.606-0.161-0.889s-0.28-0.54-0.492-0.757-0.467-0.389-0.747-0.507c-0.28-0.118-0.581-0.178-0.885-0.178s-0.605 0.061-0.885 0.178c-0.28 0.118-0.534 0.29-0.747 0.507s-0.38 0.474-0.492 0.757c-0.112 0.283-0.167 0.585-0.161 0.889v4.439h-1.041c-0.571-0.020-1.128 0.181-1.553 0.563-0.207 0.193-0.371 0.428-0.479 0.69s-0.16 0.543-0.15 0.826c-0.004 0.272 0.051 0.541 0.159 0.791s0.268 0.473 0.47 0.656c0.425 0.382 0.982 0.583 1.553 0.563h1.041v8.009c-0.018 1.281 0.277 2.547 0.86 3.688 0.546 1.068 1.366 1.972 2.376 2.62 1.021 0.647 2.207 0.985 3.416 0.971h0.624c0.665 0.024 1.315-0.196 1.83-0.617 0.245-0.203 0.44-0.459 0.573-0.748s0.199-0.604 0.194-0.922c0.019-0.592-0.186-1.169-0.574-1.617v0z"></path>
<path fill="#2d2d2d" d="M87.863 9.132c-1.037-0.58-2.221-0.846-3.406-0.768-1.428-0.012-2.834 0.347-4.082 1.041-0.438 0.244-0.852 0.527-1.24 0.846-0.066-0.408-0.255-0.787-0.542-1.084-0.228-0.207-0.494-0.367-0.785-0.469s-0.598-0.145-0.905-0.126c-0.307-0.026-0.615 0.016-0.904 0.122s-0.551 0.273-0.769 0.491c-0.218 0.218-0.385 0.48-0.491 0.769s-0.147 0.598-0.122 0.905v15.496c-0.019 0.311 0.026 0.622 0.132 0.914s0.272 0.559 0.487 0.784c0.456 0.409 1.055 0.621 1.666 0.588 0.311 0.019 0.622-0.026 0.914-0.133s0.559-0.273 0.784-0.488c0.409-0.456 0.62-1.055 0.588-1.666v-10.122c-0.016-0.414 0.052-0.826 0.2-1.213s0.374-0.738 0.663-1.034c0.695-0.66 1.568-1.101 2.512-1.268 1.239-0.235 2.514-0.212 3.744 0.068 0.345 0.085 0.704 0.099 1.055 0.040 0.351-0.063 0.677-0.222 0.943-0.459 0.296-0.274 0.497-0.636 0.571-1.033 0.105-0.427 0.063-0.878-0.121-1.278s-0.498-0.725-0.892-0.923v0z"></path>
<path fill="#2d2d2d" d="M132.359 13.284c-0.783-1.487-1.943-2.742-3.364-3.639-1.321-0.801-2.82-1.261-4.364-1.339s-3.081 0.23-4.476 0.895c-0.771 0.38-1.487 0.863-2.13 1.435v-7.994c0.011-0.308-0.040-0.616-0.152-0.903s-0.28-0.55-0.496-0.77c-0.453-0.415-1.045-0.646-1.66-0.647s-1.207 0.227-1.662 0.641c-0.222 0.218-0.397 0.48-0.513 0.769s-0.17 0.6-0.159 0.911l0 15.815c-0.001 1.818 0.466 3.605 1.355 5.19 0.856 1.513 2.096 2.773 3.595 3.651 1.151 0.681 2.426 1.127 3.75 1.312s2.672 0.106 3.966-0.234c1.293-0.339 2.507-0.932 3.57-1.743s1.955-1.825 2.624-2.984c0.901-1.583 1.364-3.378 1.339-5.2 0.027-1.797-0.395-3.573-1.226-5.167v0zM128.337 21.514c-0.468 0.876-1.159 1.612-2.004 2.133-0.64 0.39-1.354 0.645-2.096 0.748s-1.498 0.054-2.221-0.145-1.397-0.545-1.981-1.015c-0.584-0.47-1.066-1.055-1.416-1.718-0.495-0.946-0.746-2-0.731-3.067-0.020-1.066 0.231-2.12 0.729-3.062 0.468-0.865 1.159-1.59 2.001-2.098 0.868-0.504 1.854-0.769 2.857-0.77s1.989 0.265 2.857 0.768c0.84 0.516 1.531 1.24 2.007 2.104 0.507 0.938 0.764 1.992 0.744 3.058 0.014 1.068-0.243 2.122-0.747 3.063v0z"></path>
</svg>
