<!-- Generated by IcoMoon.io -->
<svg version="1.1" xmlns="http://www.w3.org/2000/svg" width="242" height="32" viewBox="0 0 242 32">
<title>trb-tech-logo-solid-white-1-1</title>
<path fill="#2d2d2d" d="M174.798 23.95h-1.184c-0.286 0-0.568-0.067-0.822-0.196s-0.475-0.316-0.643-0.547c-0.446-0.567-0.675-1.274-0.646-1.995v-8.066h2.426c0.568 0.020 1.123-0.181 1.547-0.561 0.2-0.182 0.358-0.404 0.467-0.652 0.107-0.248 0.162-0.516 0.158-0.786 0.010-0.282-0.042-0.562-0.149-0.822-0.109-0.26-0.27-0.494-0.477-0.686-0.424-0.38-0.979-0.58-1.547-0.56h-2.424v-4.479c0.005-0.303-0.050-0.604-0.162-0.885s-0.278-0.538-0.49-0.754c-0.213-0.216-0.466-0.388-0.744-0.505-0.28-0.117-0.579-0.178-0.883-0.178-0.302 0-0.602 0.060-0.882 0.178-0.278 0.117-0.531 0.289-0.744 0.505-0.211 0.216-0.378 0.472-0.49 0.754s-0.166 0.582-0.162 0.885v4.479h-1.066c-0.57-0.021-1.123 0.18-1.547 0.56-0.206 0.192-0.37 0.426-0.477 0.686s-0.158 0.541-0.149 0.822c-0.003 0.27 0.051 0.538 0.158 0.786s0.267 0.47 0.467 0.652c0.424 0.38 0.979 0.581 1.547 0.561h1.067v8.066c-0.018 1.284 0.278 2.552 0.862 3.696 0.546 1.070 1.368 1.976 2.381 2.624 1.022 0.648 2.211 0.986 3.422 0.972h0.626c0.664 0.024 1.314-0.195 1.827-0.615 0.243-0.202 0.438-0.457 0.571-0.744 0.131-0.288 0.197-0.601 0.192-0.918 0.019-0.59-0.184-1.166-0.571-1.611-0.182-0.21-0.406-0.379-0.659-0.494-0.251-0.115-0.526-0.174-0.803-0.173z"></path>
<path fill="#2d2d2d" d="M193.419 9.524c-1.496-0.881-3.211-1.325-4.947-1.281-1.802-0.031-3.578 0.421-5.146 1.309-1.485 0.86-2.704 2.111-3.525 3.618-0.867 1.627-1.304 3.448-1.269 5.291-0.032 1.845 0.432 3.664 1.344 5.268 0.886 1.522 2.174 2.772 3.722 3.612 1.362 0.721 2.858 1.154 4.394 1.271s3.078-0.083 4.534-0.588c1.117-0.356 2.165-0.902 3.098-1.614 0.248-0.169 0.448-0.399 0.582-0.668s0.198-0.568 0.184-0.868c-0.024-0.297-0.109-0.586-0.25-0.849s-0.333-0.494-0.566-0.68c-0.395-0.338-0.904-0.513-1.424-0.492-0.52 0.017-1.022 0.194-1.437 0.507-0.517 0.364-1.086 0.65-1.686 0.846-0.651 0.238-1.339 0.363-2.034 0.37-1.134 0.022-2.256-0.254-3.253-0.801-0.915-0.513-1.677-1.263-2.203-2.172-0.253-0.436-0.445-0.903-0.574-1.389h12.579c0.278 0.008 0.557-0.040 0.818-0.14 0.262-0.1 0.501-0.252 0.702-0.445 0.202-0.19 0.36-0.421 0.466-0.676 0.107-0.256 0.158-0.531 0.152-0.807 0.032-1.758-0.338-3.5-1.082-5.093-0.698-1.458-1.802-2.684-3.179-3.53zM188.472 12.31c0.91-0.043 1.814 0.189 2.59 0.666 0.778 0.477 1.394 1.177 1.768 2.008 0.208 0.438 0.365 0.899 0.467 1.374h-10.286c0.101-0.377 0.238-0.743 0.406-1.094 0.424-0.893 1.098-1.645 1.941-2.163 0.944-0.549 2.022-0.823 3.114-0.791z"></path>
<path fill="#2d2d2d" d="M215.038 9.076c-1.253-0.563-2.611-0.847-3.984-0.832-1.802-0.031-3.579 0.421-5.146 1.309-1.49 0.866-2.715 2.122-3.542 3.633-0.875 1.619-1.318 3.435-1.286 5.275-0.027 1.815 0.424 3.606 1.306 5.192 0.856 1.516 2.102 2.775 3.608 3.646 1.592 0.909 3.4 1.374 5.234 1.344 2.456 0.070 4.842-0.824 6.646-2.49 0.21-0.194 0.37-0.434 0.469-0.701s0.134-0.553 0.104-0.836c-0.040-0.285-0.136-0.559-0.282-0.807-0.144-0.248-0.338-0.465-0.566-0.638-0.197-0.171-0.426-0.299-0.672-0.377-0.248-0.078-0.509-0.105-0.766-0.078-0.533 0.057-1.035 0.275-1.442 0.624-0.448 0.369-0.962 0.649-1.514 0.828-0.642 0.191-1.309 0.282-1.978 0.27-1.040 0.023-2.064-0.245-2.96-0.775-0.838-0.512-1.523-1.242-1.982-2.112-0.493-0.955-0.741-2.016-0.722-3.090-0.027-1.108 0.214-2.206 0.706-3.199 0.437-0.856 1.104-1.573 1.926-2.070 0.866-0.505 1.856-0.762 2.858-0.742 0.726-0.019 1.448 0.12 2.115 0.405 0.669 0.285 1.267 0.711 1.755 1.249 0.365 0.381 0.835 0.644 1.35 0.756 0.258 0.056 0.526 0.057 0.784 0.002 0.259-0.055 0.504-0.163 0.717-0.319 0.482-0.317 0.829-0.8 0.974-1.357 0.064-0.288 0.054-0.587-0.027-0.87s-0.232-0.542-0.437-0.753c-0.891-1.052-1.998-1.9-3.246-2.487z"></path>
<path fill="#2d2d2d" d="M239.971 12.524c-0.734-1.364-1.85-2.484-3.21-3.224-1.403-0.74-2.97-1.116-4.555-1.092-1.534-0.020-3.050 0.35-4.402 1.076-0.341 0.187-0.67 0.396-0.984 0.626v-7.365c-0.006-0.455-0.146-0.898-0.4-1.276-0.253-0.378-0.611-0.673-1.030-0.85s-0.882-0.229-1.33-0.149c-0.448 0.080-0.862 0.289-1.194 0.601-0.222 0.217-0.397 0.478-0.51 0.767-0.115 0.288-0.17 0.597-0.158 0.907v23.682c0.006 0.459 0.147 0.906 0.405 1.285 0.259 0.38 0.622 0.675 1.046 0.85s0.891 0.222 1.341 0.134c0.451-0.087 0.866-0.305 1.194-0.626 0.21-0.218 0.374-0.476 0.485-0.758 0.109-0.282 0.162-0.583 0.154-0.886v-9.821c-0.016-0.705 0.195-1.396 0.598-1.974 0.434-0.604 1.013-1.090 1.683-1.413 0.749-0.364 1.573-0.547 2.406-0.536 0.898-0.018 1.789 0.172 2.602 0.554 0.734 0.362 1.342 0.938 1.742 1.653 0.475 0.915 0.702 1.939 0.658 2.969v8.567c-0.003 0.306 0.054 0.61 0.168 0.894 0.115 0.284 0.285 0.542 0.499 0.76 0.216 0.218 0.472 0.391 0.754 0.509 0.283 0.118 0.586 0.179 0.893 0.179 0.306 0 0.608-0.061 0.891-0.179 0.282-0.118 0.538-0.291 0.754-0.509 0.214-0.218 0.384-0.476 0.499-0.76 0.114-0.284 0.171-0.588 0.166-0.894v-8.566c0.053-1.783-0.349-3.55-1.165-5.135z"></path>
<path fill="#2d2d2d" d="M69.125 13.303c-0.89-1.533-2.167-2.806-3.704-3.69s-3.278-1.35-5.051-1.35c-1.773 0-3.515 0.466-5.051 1.35s-2.814 2.157-3.704 3.69c-0.901 1.581-1.363 3.375-1.339 5.195-0.027 1.796 0.394 3.57 1.226 5.161 0.782 1.486 1.941 2.74 3.362 3.635 1.457 0.883 3.128 1.349 4.831 1.349s3.374-0.467 4.831-1.349c0.462-0.29 0.897-0.619 1.302-0.984 0.016 0.612 0.273 1.193 0.715 1.617s1.035 0.654 1.647 0.642 1.195-0.265 1.621-0.705c0.426-0.44 0.66-1.031 0.652-1.643v-8.086l-0.005-0.002c-0.034-1.696-0.492-3.356-1.333-4.829zM65.234 21.542c-0.461 0.868-1.147 1.597-1.984 2.112-0.868 0.503-1.853 0.768-2.856 0.767s-1.988-0.265-2.855-0.768c-0.848-0.513-1.545-1.243-2.019-2.115-0.504-0.933-0.76-1.98-0.745-3.040-0.018-1.072 0.238-2.13 0.745-3.075 0.474-0.871 1.17-1.601 2.019-2.115 0.868-0.503 1.852-0.768 2.855-0.768s1.988 0.264 2.856 0.767c0.838 0.515 1.523 1.244 1.984 2.112 0.497 0.949 0.748 2.008 0.73 3.079 0.016 1.060-0.235 2.106-0.73 3.044z"></path>
<path fill="#2d2d2d" d="M107.872 13.303c-0.89-1.533-2.167-2.806-3.704-3.69s-3.278-1.35-5.051-1.35c-1.773 0-3.515 0.466-5.051 1.35s-2.814 2.157-3.704 3.69c-0.901 1.581-1.363 3.375-1.339 5.195-0.027 1.796 0.394 3.57 1.226 5.161 0.782 1.486 1.941 2.74 3.362 3.635 1.457 0.882 3.128 1.349 4.831 1.349s3.374-0.467 4.831-1.349c0.462-0.29 0.897-0.619 1.302-0.984 0.016 0.612 0.273 1.193 0.715 1.617s1.035 0.654 1.647 0.642 1.195-0.265 1.621-0.705c0.426-0.44 0.66-1.031 0.652-1.643v-8.086l-0.005-0.002c-0.033-1.696-0.491-3.357-1.333-4.829zM103.982 21.542c-0.461 0.868-1.147 1.598-1.984 2.112-0.868 0.503-1.853 0.768-2.856 0.767s-1.988-0.265-2.855-0.768c-0.849-0.514-1.545-1.244-2.019-2.115-0.504-0.933-0.761-1.98-0.745-3.040-0.018-1.072 0.238-2.13 0.745-3.075 0.474-0.871 1.17-1.601 2.019-2.115 0.868-0.503 1.852-0.768 2.855-0.768s1.988 0.264 2.856 0.767c0.838 0.515 1.523 1.244 1.984 2.112 0.497 0.949 0.748 2.008 0.73 3.079 0.016 1.060-0.235 2.107-0.73 3.044z"></path>
<path fill="#2d2d2d" d="M155.050 13.303c-0.89-1.533-2.167-2.806-3.704-3.69s-3.278-1.35-5.051-1.35c-1.773 0-3.515 0.466-5.051 1.35s-2.814 2.157-3.704 3.69c-0.901 1.581-1.363 3.375-1.339 5.195-0.027 1.796 0.394 3.57 1.226 5.161 0.782 1.486 1.941 2.74 3.362 3.635 1.457 0.883 3.128 1.349 4.831 1.349s3.374-0.467 4.831-1.349c0.461-0.29 0.897-0.619 1.302-0.984 0.016 0.612 0.273 1.193 0.715 1.617s1.035 0.654 1.647 0.642 1.195-0.265 1.621-0.705c0.426-0.44 0.661-1.031 0.652-1.643v-8.086l-0.005-0.002c-0.033-1.696-0.492-3.357-1.333-4.829zM151.159 21.542c-0.462 0.868-1.147 1.597-1.984 2.112-0.868 0.503-1.853 0.768-2.856 0.767s-1.988-0.265-2.855-0.768c-0.848-0.514-1.545-1.244-2.018-2.115-0.504-0.933-0.761-1.98-0.745-3.040-0.018-1.072 0.238-2.13 0.745-3.075 0.474-0.871 1.17-1.601 2.018-2.115 0.868-0.503 1.852-0.768 2.855-0.768s1.988 0.264 2.856 0.767c0.838 0.515 1.523 1.244 1.984 2.112 0.497 0.949 0.748 2.008 0.73 3.079 0.016 1.060-0.235 2.107-0.73 3.044z"></path>
<path fill="#2d2d2d" d="M164.35 25.89c-0.030-0.147-0.074-0.291-0.131-0.43s-0.128-0.271-0.21-0.396c-0.085-0.126-0.181-0.244-0.288-0.351s-0.224-0.202-0.349-0.286c-0.253-0.166-0.534-0.282-0.83-0.342-0.296-0.061-0.602-0.061-0.899 0-0.294 0.060-0.576 0.176-0.829 0.342-0.125 0.084-0.242 0.179-0.349 0.286s-0.203 0.225-0.288 0.351c-0.082 0.125-0.152 0.258-0.211 0.396-0.057 0.139-0.101 0.283-0.131 0.43-0.060 0.298-0.060 0.604 0 0.902 0.031 0.147 0.075 0.291 0.131 0.43s0.128 0.271 0.211 0.396c0.085 0.126 0.181 0.244 0.288 0.351 0.107 0.106 0.224 0.202 0.349 0.285 0.126 0.084 0.259 0.155 0.398 0.213 0.139 0.057 0.283 0.1 0.43 0.13 0.298 0.060 0.603 0.060 0.899 0 0.446-0.088 0.856-0.307 1.179-0.628 0.107-0.107 0.203-0.225 0.288-0.351 0.082-0.125 0.152-0.258 0.21-0.396s0.101-0.283 0.131-0.43c0.030-0.148 0.045-0.299 0.046-0.451-0.002-0.152-0.018-0.303-0.046-0.451z"></path>
<path fill="#41cbff" d="M9.37 29.966c-0.427-0.427-0.667-1.006-0.667-1.61s0.24-1.183 0.667-1.61l15.926-15.926c0.211-0.212 0.462-0.38 0.739-0.495s0.572-0.174 0.872-0.174c0.299-0 0.596 0.059 0.872 0.173s0.528 0.282 0.739 0.494 0.379 0.463 0.494 0.739c0.114 0.276 0.173 0.573 0.173 0.872s-0.059 0.595-0.174 0.872c-0.115 0.276-0.283 0.527-0.495 0.739l-15.925 15.926c-0.211 0.212-0.462 0.379-0.739 0.494s-0.572 0.173-0.871 0.173-0.595-0.059-0.871-0.173c-0.276-0.115-0.527-0.282-0.739-0.494z"></path>
<path fill="#41cbff" d="M25.298 21.562l-15.927-15.926c-0.426-0.427-0.665-1.006-0.665-1.609s0.24-1.182 0.667-1.609c0.427-0.427 1.005-0.667 1.609-0.667s1.182 0.239 1.609 0.665l15.926 15.927c0.426 0.427 0.665 1.006 0.665 1.609s-0.24 1.182-0.667 1.609c-0.427 0.427-1.005 0.666-1.609 0.667s-1.182-0.239-1.609-0.665z"></path>
<path fill="#41cbff" d="M0.967 21.562c-0.427-0.427-0.667-1.006-0.667-1.61s0.24-1.183 0.667-1.61l15.926-15.926c0.211-0.212 0.462-0.38 0.739-0.495s0.572-0.174 0.872-0.174c0.299-0 0.596 0.059 0.872 0.173s0.528 0.282 0.739 0.494c0.212 0.212 0.379 0.463 0.494 0.739s0.173 0.573 0.173 0.872-0.059 0.595-0.174 0.872c-0.115 0.276-0.283 0.527-0.495 0.739l-15.927 15.926c-0.427 0.427-1.006 0.667-1.61 0.667s-1.183-0.24-1.61-0.667z"></path>
<path fill="#41cbff" d="M16.895 29.966l-15.926-15.926c-0.426-0.427-0.665-1.006-0.665-1.609s0.24-1.182 0.667-1.609c0.427-0.427 1.005-0.667 1.609-0.667s1.182 0.239 1.609 0.665l15.926 15.926c0.211 0.211 0.379 0.462 0.493 0.739s0.173 0.572 0.173 0.871c0 0.299-0.059 0.595-0.173 0.871s-0.282 0.527-0.494 0.739c-0.212 0.211-0.462 0.379-0.739 0.493s-0.572 0.173-0.871 0.173c-0.299 0-0.595-0.059-0.871-0.173s-0.527-0.282-0.739-0.494z"></path>
<path fill="#41cbff" d="M9.37 29.966c-0.427-0.427-0.667-1.006-0.667-1.61s0.24-1.183 0.667-1.61l5.485-5.485c0.427-0.426 1.006-0.665 1.609-0.665s1.182 0.24 1.609 0.667c0.427 0.427 0.666 1.005 0.667 1.609s-0.239 1.182-0.665 1.609l-5.485 5.485c-0.211 0.212-0.462 0.379-0.739 0.494s-0.572 0.173-0.871 0.173-0.595-0.059-0.871-0.173c-0.276-0.114-0.527-0.282-0.739-0.494z"></path>
<path fill="#2d2d2d" d="M48.014 24.744c-0.182-0.211-0.407-0.38-0.661-0.495s-0.529-0.175-0.808-0.173h-1.178c-0.281 0-0.558-0.066-0.808-0.193s-0.467-0.311-0.633-0.538c-0.441-0.56-0.667-1.259-0.638-1.971v-8.001h2.391c0.571 0.020 1.127-0.181 1.553-0.562 0.201-0.183 0.361-0.406 0.469-0.655s0.163-0.518 0.159-0.79c0.010-0.283-0.041-0.564-0.149-0.826s-0.272-0.496-0.479-0.689c-0.425-0.381-0.982-0.582-1.552-0.562h-2.391v-4.434c0.006-0.304-0.049-0.606-0.161-0.888s-0.279-0.539-0.492-0.756-0.467-0.389-0.747-0.507c-0.28-0.118-0.581-0.178-0.884-0.178s-0.604 0.061-0.884 0.178c-0.28 0.118-0.534 0.29-0.747 0.507s-0.38 0.474-0.492 0.756c-0.112 0.282-0.167 0.584-0.161 0.888v4.434h-1.040c-0.571-0.020-1.127 0.181-1.552 0.562-0.207 0.193-0.371 0.428-0.479 0.689s-0.159 0.543-0.149 0.826c-0.004 0.272 0.050 0.541 0.159 0.79s0.268 0.472 0.469 0.655c0.425 0.381 0.982 0.583 1.552 0.562h1.040v8.001c-0.017 1.28 0.277 2.544 0.859 3.684 0.546 1.067 1.365 1.971 2.375 2.617 1.020 0.647 2.206 0.984 3.414 0.97h0.623c0.664 0.023 1.315-0.196 1.829-0.616 0.244-0.203 0.44-0.458 0.573-0.747s0.199-0.604 0.194-0.921c0.019-0.592-0.186-1.169-0.575-1.616z"></path>
<path fill="#2d2d2d" d="M87.101 9.154c-1.037-0.579-2.219-0.846-3.404-0.767-1.427-0.012-2.833 0.346-4.080 1.040-0.437 0.244-0.852 0.527-1.239 0.845-0.066-0.408-0.255-0.786-0.542-1.083-0.227-0.207-0.494-0.367-0.784-0.469s-0.598-0.145-0.905-0.126c-0.306-0.026-0.615 0.016-0.904 0.122s-0.551 0.273-0.768 0.491c-0.217 0.217-0.385 0.48-0.491 0.768s-0.147 0.597-0.122 0.904v15.48c-0.019 0.31 0.026 0.621 0.132 0.913s0.272 0.559 0.487 0.784c0.225 0.203 0.488 0.359 0.774 0.46s0.589 0.144 0.891 0.128c0.31 0.019 0.621-0.026 0.913-0.132s0.559-0.272 0.784-0.487c0.408-0.455 0.62-1.054 0.587-1.665v-10.112c-0.016-0.413 0.052-0.825 0.2-1.211s0.374-0.738 0.663-1.033c0.694-0.659 1.567-1.1 2.51-1.267 1.239-0.234 2.512-0.211 3.742 0.068 0.345 0.085 0.704 0.099 1.054 0.040 0.351-0.063 0.677-0.222 0.943-0.459 0.296-0.273 0.496-0.635 0.57-1.032 0.105-0.427 0.062-0.877-0.122-1.276s-0.498-0.724-0.891-0.922z"></path>
<path fill="#2d2d2d" d="M131.572 13.302c-0.783-1.485-1.942-2.739-3.362-3.635-1.32-0.8-2.819-1.26-4.361-1.337s-3.079 0.23-4.473 0.894c-0.771 0.38-1.486 0.863-2.129 1.434v-7.986c-0.007-0.457-0.146-0.901-0.401-1.28s-0.614-0.675-1.035-0.853-0.884-0.23-1.333-0.149c-0.449 0.081-0.866 0.29-1.198 0.603-0.222 0.218-0.397 0.48-0.512 0.769s-0.17 0.599-0.159 0.91v15.799c-0.001 1.816 0.465 3.601 1.354 5.185 0.855 1.511 2.095 2.77 3.593 3.647 1.15 0.68 2.424 1.125 3.748 1.31s2.671 0.106 3.963-0.233c1.293-0.339 2.505-0.931 3.568-1.741s1.954-1.824 2.623-2.98c0.901-1.582 1.363-3.375 1.338-5.195 0.027-1.795-0.394-3.569-1.225-5.161zM127.553 21.523c-0.468 0.875-1.159 1.611-2.003 2.132-0.64 0.39-1.353 0.644-2.095 0.748s-1.497 0.054-2.219-0.145c-0.722-0.199-1.396-0.544-1.98-1.014s-1.065-1.053-1.415-1.716c-0.494-0.945-0.746-1.998-0.731-3.064-0.020-1.065 0.231-2.118 0.728-3.059 0.468-0.865 1.158-1.588 2-2.095 0.868-0.503 1.852-0.768 2.855-0.768s1.988 0.264 2.856 0.767c0.839 0.515 1.53 1.239 2.006 2.101 0.507 0.937 0.763 1.989 0.744 3.055 0.014 1.067-0.243 2.119-0.747 3.059z"></path>
</svg>
