<!-- Generated by IcoMoon.io -->
<svg version="1.1" xmlns="http://www.w3.org/2000/svg" width="32" height="32" viewBox="0 0 32 32">
<title>url</title>
<path d="M13.143 21.12c-0.065 0.007-0.14 0.010-0.217 0.010-0.574 0-1.099-0.212-1.5-0.561l0.003 0.002c-0.453-0.419-0.736-1.016-0.736-1.68s0.283-1.261 0.734-1.679l0.002-0.001 5.806-5.783c0.425-0.431 1.016-0.698 1.669-0.698 1.294 0 2.344 1.049 2.344 2.344 0 0.642-0.258 1.223-0.675 1.646l0-0-5.806 5.851c-0.398 0.343-0.919 0.552-1.49 0.552-0.047 0-0.093-0.001-0.139-0.004l0.006 0z"></path>
<path d="M25.143 20.571c-0.004 0-0.009 0-0.013 0-0.628 0-1.197-0.253-1.61-0.663l0 0c-0.418-0.414-0.676-0.988-0.676-1.623s0.259-1.209 0.676-1.623l3.246-3.246c0.418-0.414 0.676-0.988 0.676-1.623s-0.259-1.209-0.676-1.623l-0-0-4.96-4.983c-0.414-0.418-0.988-0.676-1.623-0.676s-1.209 0.258-1.623 0.676l-0 0-3.223 3.246c-0.415 0.415-0.989 0.672-1.623 0.672-1.268 0-2.295-1.028-2.295-2.295 0-0.634 0.257-1.208 0.672-1.623l3.246-3.246c1.266-1.23 2.996-1.988 4.903-1.988s3.637 0.758 4.905 1.99l-0.002-0.002 4.846 4.914c1.246 1.242 2.017 2.959 2.017 4.857s-0.771 3.615-2.017 4.857l-0 0-3.223 3.314c-0.413 0.421-0.987 0.683-1.622 0.686h-0.001z"></path>
<path d="M11.817 32c-1.893-0.002-3.606-0.77-4.846-2.011l-0-0-4.96-4.983c-1.246-1.242-2.017-2.959-2.017-4.857s0.771-3.615 2.017-4.857l3.223-3.223c0.414-0.417 0.988-0.676 1.623-0.676 1.263 0 2.287 1.024 2.287 2.287 0 0.629-0.254 1.198-0.664 1.612l-3.246 3.246c-0.418 0.414-0.676 0.988-0.676 1.623s0.258 1.209 0.676 1.623l4.96 4.96c0.414 0.418 0.988 0.676 1.623 0.676s1.209-0.259 1.623-0.676l3.223-3.223c0.414-0.417 0.988-0.676 1.623-0.676 1.263 0 2.287 1.024 2.287 2.287 0 0.629-0.254 1.198-0.664 1.612l-3.246 3.246c-1.24 1.241-2.953 2.010-4.845 2.011h-0z"></path>
</svg>
