<!-- Generated by IcoMoon.io -->
<svg version="1.1" xmlns="http://www.w3.org/2000/svg" width="32" height="32" viewBox="0 0 32 32">
<title>vcard</title>
<path d="M28 4.571h-24c-2.204 0.013-3.987 1.796-4 3.999v14.858c0.013 2.204 1.796 3.987 3.999 4h24.001c2.204-0.013 3.987-1.796 4-3.999v-14.858c-0.013-2.204-1.796-3.987-3.999-4h-0.001zM26.857 24h-2.286c-0.947 0-1.714-0.767-1.714-1.714s0.767-1.714 1.714-1.714v0h2.286c0.947 0 1.714 0.767 1.714 1.714s-0.767 1.714-1.714 1.714v0zM28.571 13.143c-0.013 0.942-0.773 1.702-1.713 1.714h-21.715c-0.942-0.013-1.702-0.773-1.714-1.713v-1.144c0.013-0.942 0.773-1.702 1.713-1.714h21.715c0.942 0.013 1.702 0.773 1.714 1.713v0.001z"></path>
</svg>
