<!-- Generated by IcoMoon.io -->
<svg version="1.1" xmlns="http://www.w3.org/2000/svg" width="32" height="32" viewBox="0 0 32 32">
<title>whatsapp</title>
<path d="M31.64 12.491c-1.684-7.205-8.053-12.49-15.656-12.49-1.375 0-2.71 0.173-3.984 0.498l0.111-0.024c-3.277 0.82-6.065 2.575-8.146 4.962l-0.016 0.019c-2.185 2.447-3.612 5.611-3.891 9.099l-0.004 0.055c-0.035 0.387-0.055 0.837-0.055 1.292 0 0.838 0.067 1.661 0.197 2.463l-0.012-0.088c0.274 1.76 0.802 3.344 1.552 4.795l-0.041-0.087c0.023 0.040 0.037 0.088 0.037 0.14 0 0.023-0.003 0.046-0.008 0.068l0-0.002q-0.805 3.863-1.606 7.723c-0.047 0.149-0.077 0.322-0.084 0.5l-0 0.004c0.018 0.329 0.288 0.589 0.62 0.589 0.067 0 0.132-0.011 0.192-0.030l-0.004 0.001q3.966-0.929 7.931-1.863c0.023-0.007 0.049-0.010 0.076-0.010 0.044 0 0.086 0.010 0.124 0.028l-0.002-0.001c2.045 1.019 4.455 1.615 7.004 1.615 0.010 0 0.020 0 0.030-0h-0.002c0.002 0 0.004 0 0.006 0 4.193 0 8.010-1.612 10.865-4.25l-0.011 0.010c3.108-2.887 4.825-6.454 5.114-10.691 0.022-0.302 0.034-0.655 0.034-1.010 0-1.175-0.136-2.319-0.393-3.416l0.020 0.101zM20.223 27.58c-0.925 0.339-1.997 0.578-3.111 0.67l-0.045 0.003c-0.327 0.030-0.708 0.048-1.092 0.048-2.098 0-4.077-0.515-5.816-1.425l0.069 0.033c-0.279-0.142-0.56-0.277-0.838-0.419-0.034-0.018-0.075-0.028-0.118-0.028-0.024 0-0.048 0.003-0.070 0.010l0.002-0q-2.374 0.563-4.748 1.121c-0.029 0.006-0.058 0.010-0.102 0.017 0.119-0.579 0.235-1.142 0.352-1.708q0.335-1.607 0.667-3.21c0.004-0.018 0.006-0.039 0.006-0.060 0-0.050-0.013-0.097-0.036-0.138l0.001 0.001c-0.328-0.581-0.679-1.301-0.992-2.040l-0.056-0.148c-0.519-1.307-0.82-2.822-0.82-4.407 0-0.136 0.002-0.272 0.007-0.407l-0.001 0.020c0.15-4.884 3.104-9.044 7.301-10.934l0.078-0.032c1.017-0.467 2.196-0.814 3.432-0.983l0.066-0.007c0.501-0.071 1.079-0.111 1.667-0.111 5.497 0 10.167 3.537 11.859 8.46l0.026 0.088c0.345 1.004 0.564 2.163 0.607 3.367l0.001 0.021c0.006 0.141 0.009 0.306 0.009 0.473 0 5.387-3.426 9.973-8.219 11.698l-0.087 0.027z"></path>
<path d="M24.396 21.084c-0.4 0.632-0.869 1.175-1.406 1.64l-0.009 0.008c-0.51 0.432-1.153 0.722-1.859 0.802l-0.016 0.001c-0.3 0.040-0.646 0.063-0.998 0.063h-0c-1.189-0.035-2.305-0.309-3.314-0.776l0.052 0.022c-1.364-0.616-2.54-1.366-3.591-2.258l0.022 0.018c-1.249-1.008-2.345-2.121-3.305-3.346l-0.034-0.045c-0.711-0.891-1.286-1.93-1.669-3.057l-0.021-0.072c-0.192-0.577-0.303-1.241-0.303-1.931 0-0.222 0.011-0.441 0.034-0.657l-0.002 0.027c0.064-0.501 0.237-0.951 0.494-1.341l-0.007 0.012c0.43-0.678 0.955-1.251 1.563-1.721l0.015-0.011c0.192-0.151 0.437-0.243 0.704-0.243 0.459 0 0.854 0.271 1.036 0.661l0.003 0.007q0.672 1.471 1.317 2.954c0.064 0.135 0.101 0.294 0.101 0.461 0 0.267-0.095 0.512-0.253 0.702l0.002-0.002c-0.198 0.263-0.406 0.523-0.61 0.783-0.178 0.197-0.287 0.46-0.287 0.748 0 0.25 0.082 0.48 0.22 0.666l-0.002-0.003c0.358 0.525 0.745 0.984 1.173 1.4l0.002 0.002c0.97 1.001 2.040 1.893 3.198 2.665l0.071 0.045c0.231 0.157 0.495 0.302 0.773 0.421l0.031 0.012c0.132 0.059 0.285 0.093 0.447 0.093 0.318 0 0.605-0.132 0.809-0.344l0-0c0.244-0.244 0.487-0.492 0.731-0.737 0.209-0.226 0.508-0.367 0.839-0.367 0.126 0 0.247 0.020 0.36 0.058l-0.008-0.002q1.517 0.43 3.037 0.863c0.507 0.124 0.877 0.575 0.877 1.111 0 0.251-0.081 0.482-0.217 0.671l0.002-0.003z"></path>
<path d="M24.396 21.084c-0.4 0.632-0.869 1.175-1.406 1.64l-0.009 0.008c-0.51 0.432-1.153 0.722-1.859 0.802l-0.016 0.001c-0.3 0.040-0.646 0.063-0.998 0.063h-0c-1.189-0.035-2.305-0.309-3.314-0.776l0.052 0.022c-1.364-0.616-2.54-1.366-3.591-2.258l0.022 0.018c-1.249-1.008-2.345-2.121-3.305-3.346l-0.034-0.045c-0.711-0.891-1.286-1.93-1.669-3.057l-0.021-0.072c-0.192-0.577-0.303-1.241-0.303-1.931 0-0.222 0.011-0.441 0.034-0.657l-0.002 0.027c0.064-0.501 0.237-0.951 0.494-1.341l-0.007 0.012c0.43-0.678 0.955-1.251 1.563-1.721l0.015-0.011c0.192-0.151 0.437-0.243 0.704-0.243 0.459 0 0.854 0.271 1.036 0.661l0.003 0.007q0.672 1.471 1.317 2.954c0.064 0.135 0.101 0.294 0.101 0.461 0 0.267-0.095 0.512-0.253 0.702l0.002-0.002c-0.198 0.263-0.406 0.523-0.61 0.783-0.178 0.197-0.287 0.46-0.287 0.748 0 0.25 0.082 0.48 0.22 0.666l-0.002-0.003c0.358 0.525 0.745 0.984 1.173 1.4l0.002 0.002c0.97 1.001 2.040 1.893 3.198 2.665l0.071 0.045c0.231 0.157 0.495 0.302 0.773 0.421l0.031 0.012c0.132 0.059 0.285 0.093 0.447 0.093 0.318 0 0.605-0.132 0.809-0.344l0-0c0.244-0.244 0.487-0.492 0.731-0.737 0.209-0.226 0.508-0.367 0.839-0.367 0.126 0 0.247 0.020 0.36 0.058l-0.008-0.002q1.517 0.43 3.037 0.863c0.507 0.124 0.877 0.575 0.877 1.111 0 0.251-0.081 0.482-0.217 0.671l0.002-0.003z"></path>
</svg>
