<!-- Generated by IcoMoon.io -->
<svg version="1.1" xmlns="http://www.w3.org/2000/svg" width="32" height="32" viewBox="0 0 32 32">
<title>wifi</title>
<path d="M20 27.954c0 2.209-1.791 4-4 4s-4-1.791-4-4c0-2.209 1.791-4 4-4s4 1.791 4 4z"></path>
<path d="M21.623 20.96c-0.33-0.005-0.636-0.098-0.9-0.256l0.008 0.005c-1.349-0.829-2.983-1.319-4.731-1.319s-3.382 0.491-4.771 1.342l0.040-0.023c-0.241 0.137-0.529 0.218-0.836 0.218-0.947 0-1.714-0.767-1.714-1.714 0-0.594 0.302-1.118 0.761-1.425l0.006-0.004c1.863-1.119 4.111-1.782 6.514-1.782s4.651 0.662 6.572 1.814l-0.058-0.032c0.495 0.306 0.821 0.847 0.821 1.463 0 0.946-0.766 1.713-1.712 1.714h-0z"></path>
<path d="M25.943 14.217c-0.299-0.012-0.573-0.104-0.806-0.255l0.006 0.004c-2.6-1.627-5.759-2.593-9.143-2.593s-6.543 0.965-9.216 2.635l0.073-0.043c-0.23 0.122-0.503 0.194-0.792 0.194-0.947 0-1.714-0.768-1.714-1.714 0-0.566 0.274-1.067 0.696-1.379l0.005-0.003c3.092-1.915 6.842-3.051 10.857-3.051s7.765 1.135 10.947 3.102l-0.090-0.052c0.475 0.31 0.784 0.839 0.784 1.44 0 0.941-0.759 1.705-1.698 1.714h-0.001z"></path>
<path d="M30.286 7.497c-0.337-0.002-0.652-0.095-0.923-0.256l0.008 0.005c-3.803-2.379-8.422-3.789-13.371-3.789s-9.569 1.411-13.479 3.852l0.107-0.063c-0.245 0.142-0.538 0.226-0.852 0.226-0.597 0-1.123-0.305-1.43-0.769l-0.004-0.006c-0.151-0.248-0.241-0.548-0.241-0.87 0-0.59 0.302-1.109 0.76-1.412l0.006-0.004c4.324-2.7 9.575-4.302 15.2-4.302s10.876 1.601 15.323 4.373l-0.123-0.071c0.464 0.307 0.766 0.826 0.766 1.416 0 0.321-0.090 0.621-0.245 0.877l0.004-0.008c-0.298 0.484-0.825 0.802-1.426 0.802-0.029 0-0.058-0.001-0.087-0.002l0.004 0z"></path>
</svg>
