<!-- Generated by IcoMoon.io -->
<svg version="1.1" xmlns="http://www.w3.org/2000/svg" width="32" height="32" viewBox="0 0 32 32">
<title>you-tube-large</title>
<path fill="#ff8a0a" d="M23.761 0.119h-16.364c-0.968-0.001-1.927 0.188-2.821 0.558s-1.707 0.912-2.392 1.597c-0.684 0.684-1.227 1.497-1.597 2.392s-0.559 1.853-0.558 2.821v16.364c0 1.954 0.777 3.828 2.159 5.21s3.256 2.158 5.21 2.159h16.364c1.953-0.004 3.825-0.781 5.206-2.162s2.158-3.253 2.162-5.206v-16.364c-0-1.954-0.777-3.828-2.159-5.21s-3.256-2.158-5.21-2.159v0zM21.859 16.61c-0.182 0.31-0.44 0.568-0.75 0.75l-8.173 4.553c-0.276 0.156-0.588 0.238-0.905 0.238s-0.629-0.082-0.905-0.238c-0.274-0.155-0.5-0.381-0.655-0.655s-0.232-0.585-0.223-0.899v-9.142c-0.009-0.314 0.068-0.625 0.223-0.899s0.381-0.5 0.655-0.655c0.277-0.153 0.589-0.233 0.905-0.233s0.628 0.080 0.905 0.233l8.173 4.534c0.417 0.223 0.729 0.601 0.87 1.053s0.097 0.94-0.12 1.36z"></path>
</svg>
